<svg xmlns="http://www.w3.org/2000/svg" width="87.377" height="38.66" viewBox="0 0 87.377 38.66">
  <g id="Logo" transform="translate(-358.023 251.95)">
    <path id="Path_6643" data-name="Path 6643" d="M463.458-198.532a25.588,25.588,0,0,0-3.871-1.4,14.509,14.509,0,0,1-3.865-1.692,2.461,2.461,0,0,1-1.095-2.189,2.479,2.479,0,0,1,1.129-2.19,5.805,5.805,0,0,1,3.374-.919,6.7,6.7,0,0,1,2.714.553,5.6,5.6,0,0,1,2.049,1.438l.045.048a1.567,1.567,0,0,0,1.127.453,1.831,1.831,0,0,0,1.266-.535,1.68,1.68,0,0,0,.566-1.242,2.229,2.229,0,0,0-.686-1.444,7.461,7.461,0,0,0-3.109-2.087,11.231,11.231,0,0,0-4-.682,10.052,10.052,0,0,0-4.161.856,7,7,0,0,0-2.9,2.361A5.931,5.931,0,0,0,451-203.719a6.09,6.09,0,0,0,1.046,3.58,7.185,7.185,0,0,0,2.579,2.2,20.049,20.049,0,0,0,3.617,1.376,25.978,25.978,0,0,1,3.046,1.126,4.911,4.911,0,0,1,1.72,1.264,2.676,2.676,0,0,1,.587,1.778,2.537,2.537,0,0,1-1.181,2.209,5.75,5.75,0,0,1-3.385.964,7.4,7.4,0,0,1-5.751-2.482,1.856,1.856,0,0,0-1.288-.546,1.75,1.75,0,0,0-1.277.58,1.8,1.8,0,0,0-.522,1.264,1.756,1.756,0,0,0,.662,1.358,12.413,12.413,0,0,0,3.719,2.522,11.171,11.171,0,0,0,4.345.8h.1a10.111,10.111,0,0,0,4.194-.872,7.268,7.268,0,0,0,2.957-2.387,5.777,5.777,0,0,0,1.079-3.44,6.576,6.576,0,0,0-1.1-3.87,6.978,6.978,0,0,0-2.7-2.245" transform="translate(-65.868 -35.892)" fill="#e1a33e"/>
    <path id="Path_6644" data-name="Path 6644" d="M505.814-199.588l7.891-7.425a1.717,1.717,0,0,0,.52-1.245,1.708,1.708,0,0,0-.5-1.19,1.692,1.692,0,0,0-1.243-.532h-.013a1.727,1.727,0,0,0-1.284.569l-11.6,11.032-.071-9.774a1.775,1.775,0,0,0-.522-1.287,1.8,1.8,0,0,0-1.287-.5h-.016a1.862,1.862,0,0,0-1.3.5,1.74,1.74,0,0,0-.536,1.309l.148,20.459a1.766,1.766,0,0,0,.52,1.285,1.794,1.794,0,0,0,1.289.5h.016a1.816,1.816,0,0,0,1.263-.5,1.854,1.854,0,0,0,.567-1.255l0-.028-.044-6.062,3.477-3.293,8.556,10.521a1.7,1.7,0,0,0,1.33.637H513a2.013,2.013,0,0,0,1.267-.46,1.705,1.705,0,0,0,.63-1.383,1.942,1.942,0,0,0-.38-1.13Z" transform="translate(-91.616 -36.14)" fill="#e1a33e"/>
    <path id="Path_6645" data-name="Path 6645" d="M557.112-196.939a6.987,6.987,0,0,0-2.7-2.244,25.555,25.555,0,0,0-3.871-1.4,14.5,14.5,0,0,1-3.865-1.692,2.461,2.461,0,0,1-1.095-2.189,2.48,2.48,0,0,1,1.129-2.19,5.806,5.806,0,0,1,3.374-.919,6.545,6.545,0,0,1,2.713.553,5.613,5.613,0,0,1,2.05,1.437l.045.048a1.493,1.493,0,0,0,1.127.454,1.832,1.832,0,0,0,1.265-.536,1.676,1.676,0,0,0,.566-1.242,2.225,2.225,0,0,0-.686-1.444,7.461,7.461,0,0,0-3.109-2.087,11.352,11.352,0,0,0-4-.682,10.062,10.062,0,0,0-4.161.856,7,7,0,0,0-2.9,2.361,5.927,5.927,0,0,0-1.042,3.481,6.087,6.087,0,0,0,1.046,3.58,7.183,7.183,0,0,0,2.579,2.2,20.05,20.05,0,0,0,3.616,1.376,25.994,25.994,0,0,1,3.046,1.126,4.893,4.893,0,0,1,1.719,1.264,2.674,2.674,0,0,1,.588,1.777,2.54,2.54,0,0,1-1.182,2.209,5.745,5.745,0,0,1-3.385.964,7.386,7.386,0,0,1-5.751-2.482,1.781,1.781,0,0,0-1.287-.546,1.749,1.749,0,0,0-1.278.579,1.807,1.807,0,0,0-.522,1.264,1.759,1.759,0,0,0,.662,1.359,12.42,12.42,0,0,0,3.718,2.521,11.177,11.177,0,0,0,4.347.8h.1a10.108,10.108,0,0,0,4.194-.872,7.278,7.278,0,0,0,2.957-2.387,5.782,5.782,0,0,0,1.079-3.44,6.58,6.58,0,0,0-1.1-3.87" transform="translate(-117.153 -35.523)" fill="#e1a33e"/>
    <path id="Path_6646" data-name="Path 6646" d="M449.48-141.041a1.483,1.483,0,0,1-.525-.3.349.349,0,0,1-.135-.263.278.278,0,0,1,.085-.2.277.277,0,0,1,.205-.087.269.269,0,0,1,.17.059,1.45,1.45,0,0,0,.39.238,1.237,1.237,0,0,0,.45.074.909.909,0,0,0,.482-.124.36.36,0,0,0,.2-.308.4.4,0,0,0-.2-.35,1.7,1.7,0,0,0-.635-.191q-1.1-.159-1.1-1.012a.909.909,0,0,1,.165-.543,1.041,1.041,0,0,1,.45-.353,1.612,1.612,0,0,1,.635-.121,1.823,1.823,0,0,1,.593.094,1.432,1.432,0,0,1,.462.248.33.33,0,0,1,.145.263.278.278,0,0,1-.085.2.271.271,0,0,1-.2.087.222.222,0,0,1-.135-.045,1.324,1.324,0,0,0-.362-.191,1.219,1.219,0,0,0-.418-.087.865.865,0,0,0-.487.116.355.355,0,0,0-.172.3.354.354,0,0,0,.178.322,1.691,1.691,0,0,0,.557.179,2.91,2.91,0,0,1,.688.191.876.876,0,0,1,.387.317.97.97,0,0,1,.13.534.883.883,0,0,1-.178.548,1.14,1.14,0,0,1-.472.362,1.6,1.6,0,0,1-.635.126,2.1,2.1,0,0,1-.64-.089" transform="translate(-65.093 -73.281)" fill="#fff"/>
    <path id="Path_6647" data-name="Path 6647" d="M459.722-142.331a1.547,1.547,0,0,1,.19.831v1.27a.3.3,0,0,1-.085.216.288.288,0,0,1-.215.087.288.288,0,0,1-.215-.087.3.3,0,0,1-.085-.216v-1.27a.747.747,0,0,0-.108-.429.425.425,0,0,0-.377-.156.575.575,0,0,0-.438.166.587.587,0,0,0-.158.419v1.27a.3.3,0,0,1-.085.216.288.288,0,0,1-.215.087.288.288,0,0,1-.215-.087.3.3,0,0,1-.085-.216v-1.27a.75.75,0,0,0-.107-.429.426.426,0,0,0-.378-.156.574.574,0,0,0-.437.166.585.585,0,0,0-.158.419v1.27a.3.3,0,0,1-.085.216.288.288,0,0,1-.215.087.287.287,0,0,1-.215-.087.294.294,0,0,1-.085-.216v-2.048a.3.3,0,0,1,.085-.216.287.287,0,0,1,.215-.087.289.289,0,0,1,.215.087.3.3,0,0,1,.085.216v.08a1.219,1.219,0,0,1,.343-.305.871.871,0,0,1,.463-.126.757.757,0,0,1,.805.546,1.167,1.167,0,0,1,.348-.377.877.877,0,0,1,.527-.168.747.747,0,0,1,.685.3" transform="translate(-69.115 -74.354)" fill="#fff"/>
    <path id="Path_6648" data-name="Path 6648" d="M468.711-142.547a.293.293,0,0,1,.085.218v2.1a.3.3,0,0,1-.085.216.288.288,0,0,1-.215.086.282.282,0,0,1-.213-.084.312.312,0,0,1-.088-.213,1.021,1.021,0,0,1-.337.245,1.025,1.025,0,0,1-.448.1,1.148,1.148,0,0,1-.625-.176,1.238,1.238,0,0,1-.443-.488,1.518,1.518,0,0,1-.162-.709,1.554,1.554,0,0,1,.16-.712,1.22,1.22,0,0,1,.438-.491,1.118,1.118,0,0,1,.612-.177,1.167,1.167,0,0,1,.451.087,1.183,1.183,0,0,1,.355.22v0a.3.3,0,0,1,.085-.215.289.289,0,0,1,.215-.087.293.293,0,0,1,.215.085m-.7,1.887a.87.87,0,0,0,.2-.593.881.881,0,0,0-.2-.6.667.667,0,0,0-.53-.238.662.662,0,0,0-.525.238.881.881,0,0,0-.2.6.877.877,0,0,0,.2.593.663.663,0,0,0,.528.236.671.671,0,0,0,.53-.236" transform="translate(-74.882 -74.354)" fill="#fff"/>
    <path id="Path_6649" data-name="Path 6649" d="M475.309-142.547a.25.25,0,0,1,.1.2.306.306,0,0,1-.08.231.264.264,0,0,1-.19.077.5.5,0,0,1-.17-.035l-.068-.02a.426.426,0,0,0-.113-.015.449.449,0,0,0-.25.079.584.584,0,0,0-.2.241.884.884,0,0,0-.078.385v1.175a.3.3,0,0,1-.085.216.29.29,0,0,1-.215.087.289.289,0,0,1-.215-.087.3.3,0,0,1-.086-.216v-2.048a.3.3,0,0,1,.086-.216.288.288,0,0,1,.215-.087.289.289,0,0,1,.215.087.3.3,0,0,1,.085.216v.064a.755.755,0,0,1,.33-.31,1.02,1.02,0,0,1,.46-.107.384.384,0,0,1,.253.084" transform="translate(-79.103 -74.354)" fill="#fff"/>
    <path id="Path_6650" data-name="Path 6650" d="M479.738-141.1a.262.262,0,0,1,.058.176.266.266,0,0,1-.148.226.62.62,0,0,1-.333.092.979.979,0,0,1-.523-.132.611.611,0,0,1-.212-.558v-1.369h-.23a.273.273,0,0,1-.2-.079.267.267,0,0,1-.08-.2.252.252,0,0,1,.08-.191.278.278,0,0,1,.2-.077h.23v-.318a.29.29,0,0,1,.088-.215.3.3,0,0,1,.218-.087.283.283,0,0,1,.21.087.3.3,0,0,1,.085.215v.318h.355a.274.274,0,0,1,.2.08.268.268,0,0,1,.08.2.254.254,0,0,1-.08.191.277.277,0,0,1-.2.077h-.355v1.344a.188.188,0,0,0,.055.151.221.221,0,0,0,.15.047.425.425,0,0,0,.11-.02.3.3,0,0,1,.115-.025.167.167,0,0,1,.128.067" transform="translate(-81.586 -73.671)" fill="#fff"/>
    <path id="Path_6651" data-name="Path 6651" d="M489.387-141.388a.328.328,0,0,1,.02.106.285.285,0,0,1-.1.224.353.353,0,0,1-.238.089.28.28,0,0,1-.126-.03.277.277,0,0,1-.1-.084l-1.085-1.419-.475.451v.779a.289.289,0,0,1-.087.218.314.314,0,0,1-.228.085.3.3,0,0,1-.222-.087.294.294,0,0,1-.088-.216v-2.867a.287.287,0,0,1,.09-.215.319.319,0,0,1,.23-.087.3.3,0,0,1,.22.085.3.3,0,0,1,.085.218v1.349l1.6-1.563a.347.347,0,0,1,.245-.114.247.247,0,0,1,.2.095.3.3,0,0,1,.079.2.268.268,0,0,1-.09.193l-1.09,1.032,1.115,1.463a.344.344,0,0,1,.05.1" transform="translate(-86.428 -73.313)" fill="#fff"/>
    <path id="Path_6652" data-name="Path 6652" d="M496.115-142.43a.3.3,0,0,1,.085.216v1.26a1.144,1.144,0,0,1-.3.838,1.137,1.137,0,0,1-.848.3,1.127,1.127,0,0,1-.845-.3,1.15,1.15,0,0,1-.3-.838v-1.26a.3.3,0,0,1,.085-.216.288.288,0,0,1,.215-.087.289.289,0,0,1,.215.087.3.3,0,0,1,.085.216v1.26a.645.645,0,0,0,.135.449.524.524,0,0,0,.4.146.532.532,0,0,0,.41-.146.644.644,0,0,0,.135-.449v-1.26a.3.3,0,0,1,.086-.216.288.288,0,0,1,.215-.087.287.287,0,0,1,.215.087" transform="translate(-90.521 -74.419)" fill="#fff"/>
    <path id="Path_6653" data-name="Path 6653" d="M502.782-142.331a1.519,1.519,0,0,1,.195.831v1.27a.3.3,0,0,1-.085.216.288.288,0,0,1-.215.087.288.288,0,0,1-.215-.087.3.3,0,0,1-.085-.216v-1.27a.713.713,0,0,0-.115-.429.46.46,0,0,0-.4-.156.612.612,0,0,0-.455.166.569.569,0,0,0-.165.419v1.27a.3.3,0,0,1-.085.216.289.289,0,0,1-.215.087.288.288,0,0,1-.215-.087.3.3,0,0,1-.085-.216v-2.048a.3.3,0,0,1,.085-.216.288.288,0,0,1,.215-.087.289.289,0,0,1,.215.087.3.3,0,0,1,.085.216v.084a1.223,1.223,0,0,1,.353-.308.921.921,0,0,1,.478-.128.778.778,0,0,1,.705.3" transform="translate(-94.316 -74.354)" fill="#fff"/>
    <path id="Path_6654" data-name="Path 6654" d="M509.715-142.547a.294.294,0,0,1,.085.218v2.207a1.057,1.057,0,0,1-.378.9,1.525,1.525,0,0,1-.958.29,2.375,2.375,0,0,1-.413-.049,1.851,1.851,0,0,1-.372-.1q-.245-.1-.245-.288a.253.253,0,0,1,.015-.08.308.308,0,0,1,.1-.166.251.251,0,0,1,.158-.057.3.3,0,0,1,.095.015c.014,0,.1.034.248.091a1.169,1.169,0,0,0,.413.087.874.874,0,0,0,.553-.147.5.5,0,0,0,.183-.414v-.238a1,1,0,0,1-.333.278.97.97,0,0,1-.478.124,1.2,1.2,0,0,1-.638-.176,1.243,1.243,0,0,1-.453-.488,1.5,1.5,0,0,1-.165-.709,1.528,1.528,0,0,1,.163-.712,1.224,1.224,0,0,1,.445-.491,1.162,1.162,0,0,1,.628-.177,1.086,1.086,0,0,1,.475.1,1.112,1.112,0,0,1,.355.253v-.055a.293.293,0,0,1,.085-.215.288.288,0,0,1,.215-.087.293.293,0,0,1,.215.085m-.7,1.887a.852.852,0,0,0,.212-.593.863.863,0,0,0-.212-.6.7.7,0,0,0-.548-.238.693.693,0,0,0-.545.238.87.87,0,0,0-.21.6.859.859,0,0,0,.21.593.7.7,0,0,0,.545.236.7.7,0,0,0,.548-.236" transform="translate(-97.975 -74.354)" fill="#fff"/>
    <path id="Path_6655" data-name="Path 6655" d="M516.867-142.547a.293.293,0,0,1,.085.218v2.1a.3.3,0,0,1-.085.216.287.287,0,0,1-.215.086.282.282,0,0,1-.213-.084.309.309,0,0,1-.087-.213,1.022,1.022,0,0,1-.337.245,1.026,1.026,0,0,1-.448.1,1.146,1.146,0,0,1-.625-.176,1.234,1.234,0,0,1-.443-.488,1.513,1.513,0,0,1-.163-.709,1.549,1.549,0,0,1,.16-.712,1.221,1.221,0,0,1,.438-.491,1.118,1.118,0,0,1,.612-.177,1.167,1.167,0,0,1,.451.087,1.181,1.181,0,0,1,.355.22v0a.3.3,0,0,1,.085-.215.289.289,0,0,1,.216-.087.293.293,0,0,1,.215.085m-.7,1.887a.871.871,0,0,0,.2-.593.882.882,0,0,0-.2-.6.668.668,0,0,0-.531-.238.66.66,0,0,0-.525.238.88.88,0,0,0-.206.6.877.877,0,0,0,.2.593.663.663,0,0,0,.527.236.671.671,0,0,0,.531-.236" transform="translate(-102.035 -74.354)" fill="#fff"/>
    <path id="Path_6656" data-name="Path 6656" d="M523.913-143.6a1.551,1.551,0,0,1,.19.831v1.27a.3.3,0,0,1-.085.216.29.29,0,0,1-.215.087.288.288,0,0,1-.215-.087.3.3,0,0,1-.085-.216v-1.27a.745.745,0,0,0-.108-.429.426.426,0,0,0-.378-.156.576.576,0,0,0-.438.166.585.585,0,0,0-.157.419v1.27a.3.3,0,0,1-.085.216.289.289,0,0,1-.215.087.288.288,0,0,1-.215-.087.3.3,0,0,1-.085-.216v-3.065a.3.3,0,0,1,.085-.216.29.29,0,0,1,.215-.087.291.291,0,0,1,.215.087.3.3,0,0,1,.085.216v1.1a1.211,1.211,0,0,1,.342-.305.872.872,0,0,1,.463-.126.747.747,0,0,1,.685.3" transform="translate(-106.256 -73.085)" fill="#fff"/>
    <path id="Path_6657" data-name="Path 6657" d="M530.729-142.547a.294.294,0,0,1,.085.218v2.1a.3.3,0,0,1-.085.216.287.287,0,0,1-.215.086.282.282,0,0,1-.213-.084.309.309,0,0,1-.087-.213,1.024,1.024,0,0,1-.338.245,1.025,1.025,0,0,1-.448.1,1.145,1.145,0,0,1-.625-.176,1.233,1.233,0,0,1-.443-.488,1.514,1.514,0,0,1-.163-.709,1.551,1.551,0,0,1,.16-.712,1.222,1.222,0,0,1,.438-.491,1.119,1.119,0,0,1,.612-.177,1.167,1.167,0,0,1,.451.087,1.179,1.179,0,0,1,.355.22v0a.3.3,0,0,1,.085-.215.288.288,0,0,1,.215-.087.293.293,0,0,1,.215.085m-.7,1.887a.869.869,0,0,0,.2-.593.881.881,0,0,0-.2-.6.667.667,0,0,0-.53-.238.661.661,0,0,0-.525.238.881.881,0,0,0-.206.6.877.877,0,0,0,.2.593.663.663,0,0,0,.527.236.67.67,0,0,0,.53-.236" transform="translate(-109.851 -74.354)" fill="#fff"/>
    <path id="Path_6658" data-name="Path 6658" d="M537.327-142.547a.251.251,0,0,1,.1.2.306.306,0,0,1-.08.231.264.264,0,0,1-.19.077.493.493,0,0,1-.17-.035l-.068-.02a.428.428,0,0,0-.113-.015.448.448,0,0,0-.25.079.581.581,0,0,0-.2.241.883.883,0,0,0-.078.385v1.175a.3.3,0,0,1-.085.216.29.29,0,0,1-.215.087.289.289,0,0,1-.215-.087.3.3,0,0,1-.085-.216v-2.048a.3.3,0,0,1,.085-.216.288.288,0,0,1,.215-.087.289.289,0,0,1,.215.087.3.3,0,0,1,.085.216v.064a.753.753,0,0,1,.33-.31,1.019,1.019,0,0,1,.46-.107.384.384,0,0,1,.252.084" transform="translate(-114.072 -74.354)" fill="#fff"/>
    <path id="Path_6659" data-name="Path 6659" d="M542.711-142.547a.294.294,0,0,1,.085.218v2.1a.3.3,0,0,1-.085.216.288.288,0,0,1-.215.086.283.283,0,0,1-.213-.084.309.309,0,0,1-.087-.213,1.023,1.023,0,0,1-.338.245,1.024,1.024,0,0,1-.448.1,1.146,1.146,0,0,1-.625-.176,1.235,1.235,0,0,1-.443-.488,1.513,1.513,0,0,1-.163-.709,1.547,1.547,0,0,1,.16-.712,1.219,1.219,0,0,1,.438-.491,1.118,1.118,0,0,1,.612-.177,1.165,1.165,0,0,1,.451.087,1.18,1.18,0,0,1,.355.22v0a.3.3,0,0,1,.085-.215.289.289,0,0,1,.216-.087.293.293,0,0,1,.215.085m-.7,1.887a.87.87,0,0,0,.2-.593.882.882,0,0,0-.2-.6.667.667,0,0,0-.53-.238.66.66,0,0,0-.525.238.881.881,0,0,0-.205.6.877.877,0,0,0,.2.593.663.663,0,0,0,.527.236.67.67,0,0,0,.53-.236" transform="translate(-116.607 -74.354)" fill="#fff"/>
    <path id="Path_6660" data-name="Path 6660" d="M551.25-141.041a1.479,1.479,0,0,1-.525-.3.347.347,0,0,1-.135-.263.278.278,0,0,1,.085-.2.277.277,0,0,1,.205-.087.269.269,0,0,1,.17.059,1.459,1.459,0,0,0,.39.238,1.234,1.234,0,0,0,.45.074.909.909,0,0,0,.482-.124.36.36,0,0,0,.2-.308.393.393,0,0,0-.2-.35,1.7,1.7,0,0,0-.635-.191q-1.1-.159-1.1-1.012a.91.91,0,0,1,.165-.543,1.045,1.045,0,0,1,.45-.353,1.614,1.614,0,0,1,.635-.121,1.822,1.822,0,0,1,.593.094,1.43,1.43,0,0,1,.462.248.33.33,0,0,1,.145.263.279.279,0,0,1-.085.2.27.27,0,0,1-.2.087.22.22,0,0,1-.135-.045,1.331,1.331,0,0,0-.363-.191,1.217,1.217,0,0,0-.418-.087.866.866,0,0,0-.488.116.355.355,0,0,0-.172.3.355.355,0,0,0,.177.322,1.7,1.7,0,0,0,.558.179,2.922,2.922,0,0,1,.688.191.877.877,0,0,1,.387.317.973.973,0,0,1,.13.534.885.885,0,0,1-.178.548,1.142,1.142,0,0,1-.473.362,1.592,1.592,0,0,1-.635.126,2.1,2.1,0,0,1-.64-.089" transform="translate(-122.477 -73.281)" fill="#fff"/>
    <path id="Path_6661" data-name="Path 6661" d="M559.923-142.43a.3.3,0,0,1,.085.216v2.108a1.164,1.164,0,0,1-.35.94,1.407,1.407,0,0,1-.935.3,2.3,2.3,0,0,1-.348-.027,1.3,1.3,0,0,1-.287-.072q-.245-.1-.245-.288a.255.255,0,0,1,.015-.079.305.305,0,0,1,.1-.166.249.249,0,0,1,.157-.057.315.315,0,0,1,.1.015l.122.05a1.235,1.235,0,0,0,.186.057.915.915,0,0,0,.2.023.763.763,0,0,0,.523-.151.673.673,0,0,0,.168-.518v-.05a.978.978,0,0,1-.81.322.874.874,0,0,1-.461-.121.825.825,0,0,1-.31-.338,1.071,1.071,0,0,1-.11-.493v-1.448a.3.3,0,0,1,.085-.216.288.288,0,0,1,.215-.087.29.29,0,0,1,.215.087.3.3,0,0,1,.084.216v1.27a.616.616,0,0,0,.138.449.548.548,0,0,0,.4.136.525.525,0,0,0,.4-.151.609.609,0,0,0,.143-.434v-1.27a.3.3,0,0,1,.086-.216.287.287,0,0,1,.215-.087.288.288,0,0,1,.215.087" transform="translate(-126.498 -74.419)" fill="#fff"/>
    <path id="Path_6662" data-name="Path 6662" d="M563.88-140.488a.26.26,0,0,1,.13-.218.265.265,0,0,1,.145-.044.283.283,0,0,1,.2.094,1.05,1.05,0,0,0,.313.228.934.934,0,0,0,.392.074q.391-.015.39-.292a.237.237,0,0,0-.133-.218,1.876,1.876,0,0,0-.412-.149,3.574,3.574,0,0,1-.472-.159.834.834,0,0,1-.315-.241.665.665,0,0,1-.133-.434.655.655,0,0,1,.138-.414.905.905,0,0,1,.36-.273,1.166,1.166,0,0,1,.473-.1,1.465,1.465,0,0,1,.51.094.887.887,0,0,1,.4.278.277.277,0,0,1,.065.178.23.23,0,0,1-.1.189.252.252,0,0,1-.16.055.244.244,0,0,1-.18-.07.64.64,0,0,0-.233-.174.784.784,0,0,0-.322-.064q-.38,0-.38.273a.231.231,0,0,0,.07.176.467.467,0,0,0,.178.1c.071.025.172.055.3.092a3.324,3.324,0,0,1,.451.154.776.776,0,0,1,.3.243.7.7,0,0,1,.125.432.659.659,0,0,1-.145.424.913.913,0,0,1-.373.275,1.2,1.2,0,0,1-.468.094,1.708,1.708,0,0,1-.615-.109,1.019,1.019,0,0,1-.465-.352.238.238,0,0,1-.045-.149" transform="translate(-129.971 -74.354)" fill="#fff"/>
    <path id="Path_6663" data-name="Path 6663" d="M570.959-141.1a.26.26,0,0,1,.058.176.265.265,0,0,1-.148.226.619.619,0,0,1-.332.092.977.977,0,0,1-.523-.132.61.61,0,0,1-.213-.558v-1.369h-.23a.272.272,0,0,1-.2-.079.268.268,0,0,1-.08-.2.253.253,0,0,1,.08-.191.278.278,0,0,1,.2-.077h.23v-.318a.289.289,0,0,1,.087-.215.3.3,0,0,1,.218-.087.283.283,0,0,1,.21.087.3.3,0,0,1,.085.215v.318h.355a.273.273,0,0,1,.2.08.269.269,0,0,1,.08.2.254.254,0,0,1-.08.191.277.277,0,0,1-.2.077H570.4v1.344a.188.188,0,0,0,.055.151.221.221,0,0,0,.15.047.418.418,0,0,0,.11-.02.305.305,0,0,1,.115-.025.166.166,0,0,1,.128.067" transform="translate(-133.022 -73.671)" fill="#fff"/>
    <path id="Path_6664" data-name="Path 6664" d="M576.609-141.124a.32.32,0,0,1-.21.074h-1.65a.748.748,0,0,0,.275.459.772.772,0,0,0,.485.166,1.09,1.09,0,0,0,.32-.037.841.841,0,0,0,.183-.08l.092-.057a.382.382,0,0,1,.17-.045.248.248,0,0,1,.18.074.237.237,0,0,1,.075.173.31.31,0,0,1-.14.244,1.218,1.218,0,0,1-.375.193,1.484,1.484,0,0,1-.476.079,1.478,1.478,0,0,1-.733-.174,1.21,1.21,0,0,1-.482-.478,1.384,1.384,0,0,1-.17-.687,1.512,1.512,0,0,1,.18-.749,1.271,1.271,0,0,1,.475-.493,1.236,1.236,0,0,1,.63-.171,1.175,1.175,0,0,1,.623.179,1.338,1.338,0,0,1,.468.481,1.279,1.279,0,0,1,.175.654.255.255,0,0,1-.095.194m-1.855-.422h1.31v-.035a.512.512,0,0,0-.2-.357.651.651,0,0,0-.42-.149.619.619,0,0,0-.685.54" transform="translate(-135.763 -74.354)" fill="#fff"/>
    <path id="Path_6665" data-name="Path 6665" d="M584.917-142.331a1.55,1.55,0,0,1,.19.831v1.27a.3.3,0,0,1-.085.216.289.289,0,0,1-.215.087.288.288,0,0,1-.215-.087.3.3,0,0,1-.085-.216v-1.27a.745.745,0,0,0-.108-.429.426.426,0,0,0-.378-.156.575.575,0,0,0-.437.166.585.585,0,0,0-.157.419v1.27a.3.3,0,0,1-.085.216.289.289,0,0,1-.215.087.288.288,0,0,1-.216-.087.3.3,0,0,1-.085-.216v-1.27a.749.749,0,0,0-.107-.429.426.426,0,0,0-.378-.156.574.574,0,0,0-.437.166.585.585,0,0,0-.158.419v1.27a.3.3,0,0,1-.084.216.289.289,0,0,1-.215.087.288.288,0,0,1-.215-.087.3.3,0,0,1-.085-.216v-2.048a.3.3,0,0,1,.085-.216.288.288,0,0,1,.215-.087.289.289,0,0,1,.215.087.3.3,0,0,1,.084.216v.08a1.217,1.217,0,0,1,.343-.305.871.871,0,0,1,.462-.126.757.757,0,0,1,.806.546,1.17,1.17,0,0,1,.348-.377.878.878,0,0,1,.527-.168.747.747,0,0,1,.685.3" transform="translate(-139.706 -74.354)" fill="#fff"/>
    <path id="Path_6666" data-name="Path 6666" d="M360.533-254.2a9.783,9.783,0,0,0-4.256-3.512,1.028,1.028,0,0,0-1.305.509.783.783,0,0,0-.017.637.8.8,0,0,0,.465.442,7.879,7.879,0,0,1,3.635,2.949,14.477,14.477,0,0,1,2.441,8.35c0,5.99-3.115,10.944-7.164,11.566a12.072,12.072,0,0,0,1.187-3.726,14.622,14.622,0,0,0-1.881-8.853c-1.76-3.414-.594-7.779.694-10.839.15-.356.31-.715.477-1.068.451-.957.871-1.705,1.121-2.131a2.158,2.158,0,0,0,1.69-.4,2.109,2.109,0,0,0,.829-1.519,2.116,2.116,0,0,0-1.5-2.166,2.167,2.167,0,0,0-1.735.21,2.112,2.112,0,0,0-.995,1.414,2.079,2.079,0,0,0,.367,1.621,27.888,27.888,0,0,0-1.3,2.469,8.764,8.764,0,0,0-6.844,4.038,16.256,16.256,0,0,0-2.783,9.372,16.255,16.255,0,0,0,2.769,9.376,9.793,9.793,0,0,0,4.224,3.5.718.718,0,0,0,.268.052.707.707,0,0,0,.6-.333l.118-.189a.829.829,0,0,0,.086-.693.855.855,0,0,0-.483-.525c-3.405-1.444-5.781-6.042-5.777-11.183a14.478,14.478,0,0,1,2.453-8.346,7.41,7.41,0,0,1,4.577-3.2c-.082.215-.161.431-.236.645-1.455,4.167-1.469,7.835-.039,10.607,2.368,4.592,2.425,8.32.186,12.087-.2.332-.418.672-.656,1.011-.347.5-.733.993-1.145,1.476l-1.1,1.254a2.138,2.138,0,0,0-1.074-.313,2.142,2.142,0,0,0-2.094,1.529,2.085,2.085,0,0,0,.3,1.776,2.137,2.137,0,0,0,1.576.9c.06.005.119.008.178.008a2.155,2.155,0,0,0,2.014-1.4,2.074,2.074,0,0,0,.061-1.2l1.352-1.536a21.311,21.311,0,0,0,1.428-1.876c.079,0,.16.007.234.005a8.707,8.707,0,0,0,7.042-4.045,16.255,16.255,0,0,0,2.783-9.372,16.257,16.257,0,0,0-2.769-9.376m-4.723-7.953a.55.55,0,0,1,.5-.338h0a.548.548,0,0,1,.459.237.534.534,0,0,1,.056.51.55.55,0,0,1-.5.337h0a.548.548,0,0,1-.458-.237.534.534,0,0,1-.056-.51m-7.928,34.444a.551.551,0,0,1,.5-.338h0a.549.549,0,0,1,.459.237.536.536,0,0,1,.056.51h0a.55.55,0,0,1-.5.337h0a.549.549,0,0,1-.458-.237.535.535,0,0,1-.056-.51" transform="translate(14.362 12.103)" fill="#fff"/>
  </g>
</svg>
