<svg id="BKTH_Logo" xmlns="http://www.w3.org/2000/svg" width="146.5" height="31.152" viewBox="0 0 146.5 31.152">
  <g id="Group_3445" data-name="Group 3445" transform="translate(0 0.006)">
    <path id="Path_6399" data-name="Path 6399" d="M142.09,262.651h-6.311v-1.3c-3.823-.41-6.523-2.9-6.523-6.158,0-3.285,2.419-6.168,6.523-6.557v-1.78c-4.649.464-7.6,3.354-8.217,6.857v-21.5H142.09v30.443Zm-18.258-9.213c-.618-3.677-3.562-6.269-8.647-6.484V232.207h8.647v21.23Zm3.731,3.034v6.179h6.269a7.986,7.986,0,0,1-6.269-6.179Zm-3.731-.137v6.316h-6.976c3.838-.692,6.409-3.061,6.976-6.316Zm-8.647-7.593v12.479c4.411,0,6.948-2.647,6.948-6.218s-2.16-6.261-6.948-6.261Zm27.322-16.878H111.5v31.128h31.007Z" transform="translate(-111.5 -231.864)" fill="#fff" fill-rule="evenodd"/>
  </g>
  <g id="Group_3446" data-name="Group 3446" transform="translate(40.508 9.055)">
    <path id="Path_6400" data-name="Path 6400" d="M282.626,271.013h12.449v1.857l-.873.983h-3.385V286.3h-3.931V273.852h-4.259Z" transform="translate(-282.626 -270.794)" fill="#fff"/>
    <path id="Path_6401" data-name="Path 6401" d="M352.176,272.87l-.873.983h-6.116v3.276h5.023v2.839h-5.023v3.495h6.989V286.3h-10.92V271.013h10.92Z" transform="translate(-327.378 -270.794)" fill="#fff"/>
    <path id="Path_6402" data-name="Path 6402" d="M404.686,283.462V286.3h-7.534a3.263,3.263,0,0,1-3.494-3.276v-8.736a3.262,3.262,0,0,1,3.494-3.276h7.534v1.857l-.873.983h-5.46a.746.746,0,0,0-.765.764V282.7a.746.746,0,0,0,.765.764Z" transform="translate(-367.374 -270.794)" fill="#fff"/>
    <path id="Path_6403" data-name="Path 6403" d="M513.321,285.815a3.262,3.262,0,0,1-3.494-3.276v-9.173a3.263,3.263,0,0,1,3.494-3.276h5.241a3.275,3.275,0,0,1,3.495,3.276v9.173a3.262,3.262,0,0,1-3.495,3.276Zm4.04-2.839a.747.747,0,0,0,.765-.765v-8.517a.747.747,0,0,0-.765-.764h-2.839a.746.746,0,0,0-.764.764v8.517a.746.746,0,0,0,.764.765Z" transform="translate(-456.045 -270.09)" fill="#fff"/>
    <path id="Path_6404" data-name="Path 6404" d="M573.322,286.519a3.262,3.262,0,0,1-3.494-3.276V271.013h3.931v11.9a.747.747,0,0,0,.765.765h2.839a.747.747,0,0,0,.765-.765v-11.9h3.931v12.231a3.262,3.262,0,0,1-3.494,3.276Z" transform="translate(-501.843 -270.794)" fill="#fff"/>
    <path id="Path_6405" data-name="Path 6405" d="M628.428,274.289a3.262,3.262,0,0,1,3.494-3.276h7.426v1.857l-.874.983h-5.35a.746.746,0,0,0-.764.764v1.092a.925.925,0,0,0,.873.983l4.041.873a3.3,3.3,0,0,1,2.73,3.276v2.184a3.262,3.262,0,0,1-3.494,3.276h-8.081v-2.839h6.879a.746.746,0,0,0,.765-.764v-1.42a.925.925,0,0,0-.874-.983l-4.041-.873a3.3,3.3,0,0,1-2.73-3.276Z" transform="translate(-546.572 -270.794)" fill="#fff"/>
    <path id="Path_6406" data-name="Path 6406" d="M695.18,272.87l-.873.983h-6.116v3.276h5.023v2.839h-5.023v3.495h6.989V286.3H684.261V271.013H695.18Z" transform="translate(-589.188 -270.794)" fill="#fff"/>
    <path id="Path_6407" data-name="Path 6407" d="M452.312,286.3h-5.13V271.013h5.064v5.756h3.216v-5.756h5.064V286.3h-4.934v-5.446h-3.281Z" transform="translate(-408.229 -270.794)" fill="#fff"/>
  </g>
  <g id="Group_3447" data-name="Group 3447" transform="translate(40.526 26.391)">
    <path id="Path_6408" data-name="Path 6408" d="M282.7,343.812H284.3a1.869,1.869,0,0,1,.717.118,1.219,1.219,0,0,1,.445.3,1.018,1.018,0,0,1,.227.409,1.537,1.537,0,0,1,0,.877,1.017,1.017,0,0,1-.227.409,1.21,1.21,0,0,1-.445.3,1.855,1.855,0,0,1-.717.119h-.979v2H282.7Zm.615,2h.806a2.176,2.176,0,0,0,.355-.029.952.952,0,0,0,.313-.106.573.573,0,0,0,.221-.221.879.879,0,0,0,0-.748.575.575,0,0,0-.221-.221.956.956,0,0,0-.313-.105,2.176,2.176,0,0,0-.355-.029h-.806Z" transform="translate(-282.704 -343.697)" fill="#fff"/>
    <path id="Path_6409" data-name="Path 6409" d="M307.039,348.087a2.442,2.442,0,0,1-.954-.182,2.224,2.224,0,0,1-.745-.5,2.324,2.324,0,0,1-.486-.755,2.6,2.6,0,0,1,0-1.881,2.321,2.321,0,0,1,.486-.755,2.221,2.221,0,0,1,.745-.5,2.582,2.582,0,0,1,1.907,0,2.217,2.217,0,0,1,.745.5,2.313,2.313,0,0,1,.486.755,2.6,2.6,0,0,1,0,1.881,2.317,2.317,0,0,1-.486.755,2.221,2.221,0,0,1-.745.5A2.44,2.44,0,0,1,307.039,348.087Zm0-.576a1.648,1.648,0,0,0,1.241-.531,1.711,1.711,0,0,0,.346-.573,2.082,2.082,0,0,0,0-1.4,1.713,1.713,0,0,0-.346-.573,1.7,1.7,0,0,0-2.482,0,1.709,1.709,0,0,0-.345.573,2.075,2.075,0,0,0,0,1.4,1.707,1.707,0,0,0,.345.573,1.648,1.648,0,0,0,1.241.531Z" transform="translate(-299.476 -343.326)" fill="#fff"/>
    <path id="Path_6410" data-name="Path 6410" d="M332.569,343.812h.64l1,3.622h.013l1.065-3.622h.7l1.065,3.622h.013l1-3.622h.64l-1.318,4.53h-.652l-1.094-3.7h-.013l-1.088,3.7h-.653Z" transform="translate(-320.765 -343.697)" fill="#fff"/>
    <path id="Path_6411" data-name="Path 6411" d="M368.059,343.812h2.925v.576h-2.31v1.35h2.15v.576h-2.15v1.452H371.1v.576h-3.039Z" transform="translate(-347.854 -343.697)" fill="#fff"/>
    <path id="Path_6412" data-name="Path 6412" d="M391.325,343.812h1.593a1.869,1.869,0,0,1,.717.118,1.219,1.219,0,0,1,.445.3,1.018,1.018,0,0,1,.227.409,1.627,1.627,0,0,1,.064.438,1.169,1.169,0,0,1-.077.419,1.194,1.194,0,0,1-.221.365,1.263,1.263,0,0,1-.352.275,1.221,1.221,0,0,1-.463.138l1.286,2.067h-.768l-1.152-2h-.685v2h-.615Zm.615,2h.806a2.177,2.177,0,0,0,.355-.029.948.948,0,0,0,.313-.106.573.573,0,0,0,.221-.221.882.882,0,0,0,0-.748.575.575,0,0,0-.221-.221.952.952,0,0,0-.313-.105,2.177,2.177,0,0,0-.355-.029h-.806Z" transform="translate(-365.613 -343.697)" fill="#fff"/>
    <path id="Path_6413" data-name="Path 6413" d="M414.89,343.812h.615v4.53h-.615Z" transform="translate(-383.6 -343.697)" fill="#fff"/>
    <path id="Path_6414" data-name="Path 6414" d="M429.3,343.812h.806l2.5,3.724h.013v-3.724h.614v4.53h-.781l-2.521-3.724h-.013v3.724H429.3Z" transform="translate(-394.596 -343.697)" fill="#fff"/>
    <path id="Path_6415" data-name="Path 6415" d="M460.726,345.438v2.233a2.056,2.056,0,0,1-.378.179,4.074,4.074,0,0,1-.438.131,3.729,3.729,0,0,1-.461.08,4.044,4.044,0,0,1-.438.026,2.6,2.6,0,0,1-1.027-.192,2.2,2.2,0,0,1-1.235-1.276,2.563,2.563,0,0,1-.163-.912,2.483,2.483,0,0,1,.176-.94,2.311,2.311,0,0,1,.486-.755,2.217,2.217,0,0,1,.745-.5,2.441,2.441,0,0,1,.954-.183,2.82,2.82,0,0,1,1.024.157,1.881,1.881,0,0,1,.665.432l-.435.468a1.607,1.607,0,0,0-.595-.374,2.047,2.047,0,0,0-.659-.106,1.65,1.65,0,0,0-1.241.531,1.7,1.7,0,0,0-.346.573,2.008,2.008,0,0,0-.122.7,1.872,1.872,0,0,0,.134.713,1.767,1.767,0,0,0,.371.573,1.709,1.709,0,0,0,.557.381,1.745,1.745,0,0,0,.7.138,3.023,3.023,0,0,0,.618-.061,1.749,1.749,0,0,0,.5-.176v-1.261h-1v-.576Z" transform="translate(-415.426 -343.326)" fill="#fff"/>
    <path id="Path_6416" data-name="Path 6416" d="M500.486,343.812h.615v4.53h-.615Z" transform="translate(-448.934 -343.697)" fill="#fff"/>
    <path id="Path_6417" data-name="Path 6417" d="M514.892,343.812h.807l2.5,3.724h.013v-3.724h.614v4.53h-.78l-2.521-3.724h-.013v3.724h-.614Z" transform="translate(-459.93 -343.697)" fill="#fff"/>
    <path id="Path_6418" data-name="Path 6418" d="M543.315,343.812h.807l2.5,3.724h.013v-3.724h.614v4.53h-.78l-2.521-3.724h-.013v3.724h-.615Z" transform="translate(-481.625 -343.697)" fill="#fff"/>
    <path id="Path_6419" data-name="Path 6419" d="M572.966,348.087a2.441,2.441,0,0,1-.954-.182,2.222,2.222,0,0,1-.745-.5,2.319,2.319,0,0,1-.486-.755,2.6,2.6,0,0,1,0-1.881,2.316,2.316,0,0,1,.486-.755,2.218,2.218,0,0,1,.745-.5,2.582,2.582,0,0,1,1.907,0,2.22,2.22,0,0,1,.745.5,2.315,2.315,0,0,1,.486.755,2.6,2.6,0,0,1,0,1.881,2.319,2.319,0,0,1-.486.755,2.224,2.224,0,0,1-.745.5A2.441,2.441,0,0,1,572.966,348.087Zm0-.576a1.649,1.649,0,0,0,1.241-.531,1.722,1.722,0,0,0,.346-.573,2.086,2.086,0,0,0,0-1.4,1.724,1.724,0,0,0-.346-.573,1.7,1.7,0,0,0-2.483,0,1.713,1.713,0,0,0-.345.573,2.079,2.079,0,0,0,0,1.4,1.711,1.711,0,0,0,.345.573,1.648,1.648,0,0,0,1.242.531Z" transform="translate(-502.455 -343.326)" fill="#fff"/>
    <path id="Path_6420" data-name="Path 6420" d="M598.075,343.812h.71l1.331,3.686h.013l1.382-3.686h.672l-1.786,4.53h-.576Z" transform="translate(-523.422 -343.697)" fill="#fff"/>
    <path id="Path_6421" data-name="Path 6421" d="M622.915,343.812h.557l1.939,4.53h-.717l-.454-1.119h-2.157l-.448,1.119h-.717Zm1.1,2.873-.845-2.08h-.013l-.857,2.08Z" transform="translate(-540.859 -343.697)" fill="#fff"/>
    <path id="Path_6422" data-name="Path 6422" d="M646.713,344.388h-1.459v-.576h3.532v.576h-1.459v3.954h-.615Z" transform="translate(-559.433 -343.697)" fill="#fff"/>
    <path id="Path_6423" data-name="Path 6423" d="M669.846,343.812h.615v4.53h-.615Z" transform="translate(-578.204 -343.697)" fill="#fff"/>
    <path id="Path_6424" data-name="Path 6424" d="M685.523,348.087a2.443,2.443,0,0,1-.954-.182,2.219,2.219,0,0,1-.745-.5,2.315,2.315,0,0,1-.486-.755,2.6,2.6,0,0,1,0-1.881,2.312,2.312,0,0,1,.486-.755,2.215,2.215,0,0,1,.745-.5,2.583,2.583,0,0,1,1.907,0,2.221,2.221,0,0,1,.745.5,2.318,2.318,0,0,1,.486.755,2.6,2.6,0,0,1,0,1.881,2.322,2.322,0,0,1-.486.755,2.224,2.224,0,0,1-.745.5A2.441,2.441,0,0,1,685.523,348.087Zm0-.576a1.649,1.649,0,0,0,1.241-.531,1.722,1.722,0,0,0,.346-.573,2.086,2.086,0,0,0,0-1.4,1.724,1.724,0,0,0-.346-.573,1.7,1.7,0,0,0-2.483,0,1.708,1.708,0,0,0-.345.573,2.075,2.075,0,0,0,0,1.4,1.706,1.706,0,0,0,.345.573,1.65,1.65,0,0,0,1.242.531Z" transform="translate(-588.368 -343.326)" fill="#fff"/>
    <path id="Path_6425" data-name="Path 6425" d="M713.792,343.812h.807l2.5,3.724h.013v-3.724h.614v4.53h-.781l-2.521-3.724h-.013v3.724h-.615Z" transform="translate(-611.747 -343.697)" fill="#fff"/>
  </g>
  <g id="Group_3448" data-name="Group 3448" transform="translate(76.978)">
    <path id="Path_6426" data-name="Path 6426" d="M454.994,239.264h-18.3l9.143-7.426v.014Z" transform="translate(-436.694 -231.838)" fill="#fff" fill-rule="evenodd"/>
  </g>
</svg>
