<svg id="BKTH_Logo" xmlns="http://www.w3.org/2000/svg" width="170.412" height="33.817" viewBox="0 0 170.412 33.817">
  <g id="Group_3445" data-name="Group 3445" transform="translate(0 12.357)">
    <path id="Path_6399" data-name="Path 6399" d="M133.772,253.088h-4.6v-.9c-2.783-.283-4.75-2-4.75-4.246,0-2.265,1.762-4.252,4.75-4.52V242.2c-3.385.32-5.531,2.312-5.982,4.727V232.1h10.578v20.988Zm-13.294-6.352c-.45-2.535-2.594-4.322-6.3-4.47V232.1h6.3v14.636Zm2.716,2.092v4.26h4.564a5.668,5.668,0,0,1-4.564-4.26Zm-2.716-.095v4.354H115.4c2.795-.477,4.666-2.11,5.079-4.354Zm-6.3-5.234v8.6c3.212,0,5.058-1.825,5.058-4.287s-1.573-4.316-5.058-4.316Zm19.893-11.636H111.5v21.459h22.576Z" transform="translate(-111.5 -231.864)" fill="#4f210d" fill-rule="evenodd"/>
  </g>
  <g id="Group_3446" data-name="Group 3446" transform="translate(25.764 12.357)">
    <path id="Path_6400" data-name="Path 6400" d="M282.626,271.013h16.989v2.534l-1.192,1.341H293.8v16.989h-5.365V274.888h-5.812Z" transform="translate(-282.626 -270.715)" fill="#4f210d"/>
    <path id="Path_6401" data-name="Path 6401" d="M356.158,273.547l-1.191,1.341H346.62v4.471h6.855v3.874H346.62V288h9.538v3.875h-14.9V271.013h14.9Z" transform="translate(-322.316 -270.715)" fill="#4f210d"/>
    <path id="Path_6402" data-name="Path 6402" d="M408.708,288v3.875H398.426a4.452,4.452,0,0,1-4.769-4.471V275.484a4.452,4.452,0,0,1,4.769-4.471h10.282v2.534l-1.192,1.341h-7.451a1.018,1.018,0,0,0-1.044,1.043v11.028A1.019,1.019,0,0,0,400.065,288Z" transform="translate(-357.789 -270.715)" fill="#4f210d"/>
    <path id="Path_6403" data-name="Path 6403" d="M514.6,291.55a4.452,4.452,0,0,1-4.768-4.47V274.561a4.453,4.453,0,0,1,4.768-4.471h7.153a4.469,4.469,0,0,1,4.769,4.471v12.518a4.452,4.452,0,0,1-4.769,4.47Zm5.514-3.874a1.02,1.02,0,0,0,1.044-1.043V275.008a1.019,1.019,0,0,0-1.044-1.043h-3.875a1.018,1.018,0,0,0-1.042,1.043v11.624a1.018,1.018,0,0,0,1.042,1.043Z" transform="translate(-436.431 -270.09)" fill="#4f210d"/>
    <path id="Path_6404" data-name="Path 6404" d="M574.6,292.174a4.452,4.452,0,0,1-4.769-4.47V271.013h5.365v16.244a1.019,1.019,0,0,0,1.043,1.043h3.874a1.019,1.019,0,0,0,1.044-1.043V271.013h5.365V287.7a4.452,4.452,0,0,1-4.768,4.47Z" transform="translate(-477.049 -270.715)" fill="#4f210d"/>
    <path id="Path_6405" data-name="Path 6405" d="M628.428,275.484a4.452,4.452,0,0,1,4.768-4.471h10.134v2.534l-1.193,1.341h-7.3a1.018,1.018,0,0,0-1.042,1.043v1.49a1.262,1.262,0,0,0,1.191,1.342l5.514,1.192a4.5,4.5,0,0,1,3.725,4.471v2.98a4.452,4.452,0,0,1-4.768,4.471H628.428V288h9.388a1.018,1.018,0,0,0,1.043-1.043v-1.938a1.262,1.262,0,0,0-1.192-1.341l-5.514-1.192a4.5,4.5,0,0,1-3.725-4.471Z" transform="translate(-516.718 -270.715)" fill="#4f210d"/>
    <path id="Path_6406" data-name="Path 6406" d="M699.163,273.547l-1.191,1.341h-8.346v4.471h6.855v3.874h-6.855V288h9.537v3.875h-14.9V271.013h14.9Z" transform="translate(-554.515 -270.715)" fill="#4f210d"/>
    <path id="Path_6407" data-name="Path 6407" d="M454.183,291.877h-7V271.013h6.911v7.855h4.389v-7.855h6.911v20.864h-6.733v-7.433h-4.478Z" transform="translate(-394.023 -270.715)" fill="#4f210d"/>
  </g>
  <g id="Group_3448" data-name="Group 3448" transform="translate(75.535)">
    <path id="Path_6426" data-name="Path 6426" d="M461.668,241.972H436.694l12.478-10.134v.019Z" transform="translate(-436.694 -231.838)" fill="#4f210d" fill-rule="evenodd"/>
  </g>
</svg>
