<svg id="ico_feature_cashcroprecord" xmlns="http://www.w3.org/2000/svg" width="48.847" height="50" viewBox="0 0 48.847 50">
  <path id="Path_7094" data-name="Path 7094" d="M157.054,281.412a11.126,11.126,0,0,0,4.485,2.065,12.351,12.351,0,0,1,5.53,2.735,13.779,13.779,0,0,1,3.967,8.056,10.577,10.577,0,0,0,2.384-8.565,16.445,16.445,0,0,0-4.658-9.275c-4.684-4.795-11.231-6.13-15.736-3.578h0a13.209,13.209,0,0,0,4.029,8.561Z" transform="translate(-148.263 -247.433)" fill="#4f210d"/>
  <path id="Path_7095" data-name="Path 7095" d="M110.02,320.5a15.815,15.815,0,0,0,9.063,4.768,12.579,12.579,0,0,0,1.645.111,9.968,9.968,0,0,0,5.12-1.376,3.3,3.3,0,0,1-.332-1.093,11.368,11.368,0,0,0-3.17-6.753,9.972,9.972,0,0,0-4.486-2.152,13.569,13.569,0,0,1-5.436-2.568,14.848,14.848,0,0,1-4.713-8.736c-3.966,4.513-2.993,12.373,2.309,17.8Z" transform="translate(-105.282 -275.381)" fill="#4f210d"/>
  <path id="Path_7096" data-name="Path 7096" d="M486.61,260.975a16.535,16.535,0,0,0-3.578-9.765,10.681,10.681,0,0,0-5.723-3.715,13.329,13.329,0,0,0-2.642,9.115,11.659,11.659,0,0,0,1.964,4.613,12.959,12.959,0,0,1,2.3,5.829,13.89,13.89,0,0,1-2.357,8.693c5.927-.582,10.4-7.086,10.038-14.771Z" transform="translate(-437.784 -225.809)" fill="#4f210d"/>
  <path id="Path_7097" data-name="Path 7097" d="M371.408,260.391a16.531,16.531,0,0,0,3.578,9.764,10.63,10.63,0,0,0,5.826,3.745,3.161,3.161,0,0,1,.485-1.064,11.458,11.458,0,0,0,2.088-7.183,10.443,10.443,0,0,0-1.906-4.679,14.2,14.2,0,0,1-2.339-5.641,15.048,15.048,0,0,1,2.258-9.71c-5.9.613-10.352,7.1-9.991,14.768Z" transform="translate(-344.845 -224.127)" fill="#4f210d"/>
  <path id="Path_7098" data-name="Path 7098" d="M189.062,153.315h.175a15.655,15.655,0,0,0,9.561-3.093,10.934,10.934,0,0,0,3.955-5.627,12.636,12.636,0,0,0-8.745-3.227,11.081,11.081,0,0,0-4.614,1.74,12.29,12.29,0,0,1-5.821,2.01,13.08,13.08,0,0,1-8.344-2.908c.227,6.088,6.313,11.031,13.833,11.1Z" transform="translate(-168.251 -130.509)" fill="#4f210d"/>
  <path id="Path_7099" data-name="Path 7099" d="M191.117,45.254a13.5,13.5,0,0,1,5.637-2.063,14.192,14.192,0,0,1,9.345,2.868c-.255-6.068-6.33-10.986-13.831-11.06h-.17c-6.6,0-12.137,3.769-13.547,8.828a2.568,2.568,0,0,1,1,.557,10.905,10.905,0,0,0,6.885,2.548,9.939,9.939,0,0,0,4.677-1.678Z" transform="translate(-171.242 -34.998)" fill="#4f210d"/>
</svg>
