<svg xmlns="http://www.w3.org/2000/svg" width="50" height="50" viewBox="0 0 50 50">
  <path id="ico_feature_bireports" d="M50.864,21.318A1.136,1.136,0,0,0,52,20.182V15.636A1.136,1.136,0,0,0,50.864,14.5H42.023l-10.7-6.614a4.42,4.42,0,0,0,.227-1.341,4.545,4.545,0,1,0-9.091,0,4.545,4.545,0,0,0,.216,1.318L11.875,14.5H3.136A1.136,1.136,0,0,0,2,15.636v4.545a1.136,1.136,0,0,0,1.136,1.136H5.409V45.182H3.136A1.136,1.136,0,0,0,2,46.318v4.545A1.136,1.136,0,0,0,3.136,52H50.864A1.136,1.136,0,0,0,52,50.864V46.318a1.136,1.136,0,0,0-1.136-1.136H48.591V21.318ZM23.852,9.818a4.545,4.545,0,0,0,6.284,0L37.7,14.5H16.227ZM46.318,45.182H7.682V21.318H46.318ZM15.636,42.909H12.227V40.636H14.5V34.955a1.136,1.136,0,0,1,1.136-1.136h4.545a1.136,1.136,0,0,1,1.136,1.136v5.682h2.273V30.409a1.136,1.136,0,0,1,1.136-1.136h4.545a1.136,1.136,0,0,1,1.136,1.136V40.636h2.273V24.727a1.136,1.136,0,0,1,1.136-1.136h4.545A1.136,1.136,0,0,1,39.5,24.727V40.636h2.273v2.273Z" transform="translate(-2 -2)" fill="#4f210d"/>
</svg>
