<svg xmlns="http://www.w3.org/2000/svg" width="50" height="52.083" viewBox="0 0 50 52.083">
  <path id="ico_feature_valuechainregistration" d="M33.292,28.669l-6.146-6.4V20.531a9.64,9.64,0,0,0,8.333-9.766A9.536,9.536,0,0,0,26.1,1a9.536,9.536,0,0,0-9.375,9.766,9.72,9.72,0,0,0,8.333,9.766v1.736l-6.146,6.4a1.079,1.079,0,0,0,0,1.519l6.458,6.727a.979.979,0,0,0,1.458,0l6.458-6.727A1.077,1.077,0,0,0,33.292,28.669ZM22.458,7.619H29.75A1,1,0,0,1,30.792,8.7,1,1,0,0,1,29.75,9.789H22.458A1,1,0,0,1,21.417,8.7,1,1,0,0,1,22.458,7.619Zm0,6.293a1,1,0,0,1-1.042-1.085,1,1,0,0,1,1.042-1.085H29.75a1,1,0,0,1,1.042,1.085,1,1,0,0,1-1.042,1.085Zm13.021,16.6h5.1v6.51h2.083v-7.6a1,1,0,0,0-.312-.76.928.928,0,0,0-.729-.326H35.479A3.841,3.841,0,0,1,35.479,30.514Zm-23.854-.109h5.1a3.841,3.841,0,0,1,0-2.17H10.583a.928.928,0,0,0-.729.326,1,1,0,0,0-.312.76v7.6h2.083v-6.51Zm7.188,8.681H2.042A1.067,1.067,0,0,0,1,40.171V52a1,1,0,0,0,1.042,1.085H18.813A1.065,1.065,0,0,0,19.854,52V40.171A1,1,0,0,0,18.813,39.086Zm31.146,0H33.187a1.067,1.067,0,0,0-1.042,1.085V52a1,1,0,0,0,1.042,1.085H49.958A1,1,0,0,0,51,52V40.171A1,1,0,0,0,49.958,39.086Z" transform="translate(-1 -1)" fill="#4f210d"/>
</svg>
