<svg xmlns="http://www.w3.org/2000/svg" width="20.769" height="23.621" viewBox="0 0 20.769 23.621">
  <g id="ico_locationfarm_unselected" transform="translate(-6 -4)">
    <path id="Path_7550" data-name="Path 7550" d="M24.461,4H8.308A2.279,2.279,0,0,0,6,6.25V22a2.279,2.279,0,0,0,2.308,2.25h4.615l3.461,3.374,3.461-3.374h4.615A2.279,2.279,0,0,0,26.769,22V6.25A2.279,2.279,0,0,0,24.461,4Z" transform="translate(0 0)" fill="#4f210d"/>
    <g id="Group_4501" data-name="Group 4501" transform="translate(8.437 6.944)">
      <path id="Path_7402" data-name="Path 7402" d="M3.274,23.245H10.2l-.082-.12a5.645,5.645,0,0,0-2.107-1.589,7.178,7.178,0,0,0-3.283-.779l-1.04.09-.356.06L3,21v1.948A.288.288,0,0,0,3.274,23.245Z" transform="translate(-3 -9.488)" fill="#fff"/>
      <path id="Path_7403" data-name="Path 7403" d="M3.6,44.87l1.149-.09a7.687,7.687,0,0,1,3.5.839,6.167,6.167,0,0,1,2.3,1.768l.274.48h2.927l-.082-.15a10.741,10.741,0,0,0-4.514-4.286,8.694,8.694,0,0,0-5.773-1.019L3,42.562v2.4l.246-.06Z" transform="translate(-3 -34.11)" fill="#fff"/>
      <path id="Path_7404" data-name="Path 7404" d="M9.4,23.882a11.4,11.4,0,0,1,4.733,4.526l.246.48h2.6a.269.269,0,0,0,.226-.138.325.325,0,0,0,.021-.282,14.883,14.883,0,0,0-6.676-7.284,27.968,27.968,0,0,0-7.3-1.319.291.291,0,0,0-.246.3v2.728l.246-.09A9.118,9.118,0,0,1,9.4,23.882Zm5.335-.24a16.139,16.139,0,0,1,1.7,2.188,8.072,8.072,0,0,1,1.806.06l.41.06h.027l.219.06V23.493l-.356-.06A10.236,10.236,0,0,0,14.737,23.642ZM18.649,19.9a12.886,12.886,0,0,0-7.113,1.169,14.145,14.145,0,0,1,2.709,2.1,10.722,10.722,0,0,1,4.377-.33l.274.06V20.2A.291.291,0,0,0,18.649,19.9Zm-.465,6.564a7.572,7.572,0,0,0-1.4-.06,16.883,16.883,0,0,1,.93,1.768.978.978,0,0,1,.027.689h.875a.288.288,0,0,0,.274-.3V26.61l-.328-.09ZM12.74,18.007l.657-.51v2.248l1.368-.33v-1.5a.144.144,0,0,1,.137-.15h1.368a.144.144,0,0,1,.137.15v1.289h1.368V17.5l.657.54.164.06a.277.277,0,0,0,.26-.2.317.317,0,0,0-.1-.335l-3.009-2.4a.255.255,0,0,0-.328,0l-3.009,2.4a.319.319,0,0,0-.055.42.258.258,0,0,0,.383.06Z" transform="translate(-3 -15.1)" fill="#fff"/>
    </g>
  </g>
</svg>
