<svg xmlns="http://www.w3.org/2000/svg" width="157.94" height="71.944" viewBox="0 0 157.94 71.944">
  <g id="ico_sks_logo" transform="translate(-31.047 -84.738)">
    <g id="Group_4141" data-name="Group 4141" transform="translate(-313.16 348.791)">
      <g id="Group_4684" data-name="Group 4684" transform="translate(0 -7.798)">
        <path id="Path_6643" data-name="Path 6643" d="M474.787-189.449a49.022,49.022,0,0,0-7.177-2.462,27.6,27.6,0,0,1-7.166-2.985,4.28,4.28,0,0,1-2.03-3.863,4.315,4.315,0,0,1,2.093-3.863,11.173,11.173,0,0,1,6.255-1.621,12.962,12.962,0,0,1,5.031.975,10.4,10.4,0,0,1,3.8,2.536l.084.085a2.983,2.983,0,0,0,2.09.8,3.483,3.483,0,0,0,2.347-.944,2.9,2.9,0,0,0,1.049-2.192,3.853,3.853,0,0,0-1.272-2.547,13.888,13.888,0,0,0-5.764-3.683,21.779,21.779,0,0,0-7.41-1.2,19.453,19.453,0,0,0-7.716,1.51,12.867,12.867,0,0,0-5.374,4.166,10.106,10.106,0,0,0-1.932,6.142,10.375,10.375,0,0,0,1.94,6.316,13.167,13.167,0,0,0,4.781,3.887,38.364,38.364,0,0,0,6.706,2.427,49.753,49.753,0,0,1,5.647,1.987,9.088,9.088,0,0,1,3.189,2.229,4.575,4.575,0,0,1,1.089,3.138,4.422,4.422,0,0,1-2.191,3.9,11.059,11.059,0,0,1-6.276,1.7,14.055,14.055,0,0,1-10.663-4.379,3.531,3.531,0,0,0-2.388-.964,3.32,3.32,0,0,0-2.369,1.023,3.1,3.1,0,0,0-.967,2.229,3.047,3.047,0,0,0,1.228,2.4,23.114,23.114,0,0,0,6.895,4.45,21.64,21.64,0,0,0,8.056,1.42h.194a19.564,19.564,0,0,0,7.777-1.539,13.366,13.366,0,0,0,5.483-4.212,9.857,9.857,0,0,0,2-6.068,11.2,11.2,0,0,0-2.034-6.827,12.811,12.811,0,0,0-5.006-3.96" transform="translate(-61.285 -32.151)" fill="#e1a33e"/>
        <path id="Path_6644" data-name="Path 6644" d="M514.318-191.644l14.631-13.1a2.956,2.956,0,0,0,.964-2.2,2.943,2.943,0,0,0-.935-2.1,3.217,3.217,0,0,0-2.3-.939h-.024a3.278,3.278,0,0,0-2.381,1l-21.5,19.463-.131-17.245a3.056,3.056,0,0,0-.968-2.271,3.428,3.428,0,0,0-2.386-.879h-.03a3.551,3.551,0,0,0-2.4.885,3,3,0,0,0-.994,2.31l.274,36.1a3.041,3.041,0,0,0,.965,2.267,3.421,3.421,0,0,0,2.39.882h.029a3.461,3.461,0,0,0,2.342-.881,3.2,3.2,0,0,0,1.052-2.214l0-.05-.081-10.7,6.447-5.81,15.864,18.562a3.206,3.206,0,0,0,2.465,1.124h.024a3.85,3.85,0,0,0,2.348-.812,2.952,2.952,0,0,0,1.168-2.439,3.32,3.32,0,0,0-.7-1.994Z" transform="translate(-70.023 -32.255)" fill="#e1a33e"/>
        <path id="Path_6645" data-name="Path 6645" d="M570.748-186.14a12.827,12.827,0,0,0-5.006-3.96,48.96,48.96,0,0,0-7.177-2.462,27.593,27.593,0,0,1-7.166-2.985,4.281,4.281,0,0,1-2.03-3.863,4.317,4.317,0,0,1,2.094-3.863,11.174,11.174,0,0,1,6.255-1.621,12.665,12.665,0,0,1,5.031.975,10.421,10.421,0,0,1,3.8,2.535l.083.085a2.842,2.842,0,0,0,2.09.8,3.485,3.485,0,0,0,2.346-.945,2.892,2.892,0,0,0,1.049-2.192,3.846,3.846,0,0,0-1.271-2.547,13.886,13.886,0,0,0-5.765-3.682,22.013,22.013,0,0,0-7.411-1.2,19.469,19.469,0,0,0-7.715,1.51,12.863,12.863,0,0,0-5.374,4.166,10.1,10.1,0,0,0-1.931,6.141,10.371,10.371,0,0,0,1.939,6.317,13.162,13.162,0,0,0,4.781,3.886,38.354,38.354,0,0,0,6.705,2.428,49.772,49.772,0,0,1,5.648,1.987,9.055,9.055,0,0,1,3.188,2.23,4.576,4.576,0,0,1,1.09,3.136,4.427,4.427,0,0,1-2.191,3.9,11.048,11.048,0,0,1-6.277,1.7,14.028,14.028,0,0,1-10.663-4.379,3.393,3.393,0,0,0-2.386-.964,3.317,3.317,0,0,0-2.369,1.022,3.111,3.111,0,0,0-.968,2.23,3.05,3.05,0,0,0,1.229,2.4,23.129,23.129,0,0,0,6.894,4.449,21.655,21.655,0,0,0,8.059,1.419h.192a19.557,19.557,0,0,0,7.777-1.538,13.385,13.385,0,0,0,5.483-4.211,9.866,9.866,0,0,0,2-6.068,11.206,11.206,0,0,0-2.035-6.828" transform="translate(-78.688 -31.998)" fill="#e1a33e"/>
        <g id="Group_4637" data-name="Group 4637" transform="translate(387.794 -192.537)">
          <path id="Path_6646" data-name="Path 6646" d="M450.044-138.38a2.787,2.787,0,0,1-.974-.534.606.606,0,0,1-.251-.464.48.48,0,0,1,.158-.354.526.526,0,0,1,.38-.153.516.516,0,0,1,.316.1,2.719,2.719,0,0,0,.723.421,2.4,2.4,0,0,0,.835.131,1.753,1.753,0,0,0,.894-.218.634.634,0,0,0,.376-.543.69.69,0,0,0-.371-.617,3.272,3.272,0,0,0-1.177-.337q-2.031-.281-2.031-1.785a1.55,1.55,0,0,1,.306-.959,1.919,1.919,0,0,1,.835-.622,3.123,3.123,0,0,1,1.177-.214,3.538,3.538,0,0,1,1.1.166,2.7,2.7,0,0,1,.857.437.575.575,0,0,1,.269.464.479.479,0,0,1-.158.354.515.515,0,0,1-.371.153.424.424,0,0,1-.25-.079,2.5,2.5,0,0,0-.672-.337,2.361,2.361,0,0,0-.775-.153,1.67,1.67,0,0,0-.9.205.62.62,0,0,0-.319.538.618.618,0,0,0,.329.569,3.249,3.249,0,0,0,1.033.315,5.608,5.608,0,0,1,1.275.337,1.61,1.61,0,0,1,.718.559,1.647,1.647,0,0,1,.242.942,1.509,1.509,0,0,1-.33.966,2.1,2.1,0,0,1-.876.639,3.088,3.088,0,0,1-1.177.223,4.08,4.08,0,0,1-1.187-.157" transform="translate(-448.819 144.783)" fill="#e1a33e"/>
          <path id="Path_6647" data-name="Path 6647" d="M462.943-142.1a2.624,2.624,0,0,1,.353,1.466v2.24a.508.508,0,0,1-.158.381.549.549,0,0,1-.4.153.548.548,0,0,1-.4-.153.508.508,0,0,1-.158-.381v-2.24a1.269,1.269,0,0,0-.2-.757.806.806,0,0,0-.7-.276,1.1,1.1,0,0,0-.812.293,1.007,1.007,0,0,0-.292.74v2.24a.509.509,0,0,1-.158.381.548.548,0,0,1-.4.153.548.548,0,0,1-.4-.153.508.508,0,0,1-.158-.381v-2.24a1.273,1.273,0,0,0-.2-.757.808.808,0,0,0-.7-.276,1.094,1.094,0,0,0-.811.293,1,1,0,0,0-.293.74v2.24a.508.508,0,0,1-.157.381.549.549,0,0,1-.4.153.547.547,0,0,1-.4-.153.506.506,0,0,1-.158-.381v-3.614a.508.508,0,0,1,.158-.381.547.547,0,0,1,.4-.153.55.55,0,0,1,.4.153.509.509,0,0,1,.157.381v.14a2.229,2.229,0,0,1,.636-.539,1.677,1.677,0,0,1,.858-.223,1.4,1.4,0,0,1,1.493.962,2.1,2.1,0,0,1,.645-.666,1.683,1.683,0,0,1,.978-.3,1.414,1.414,0,0,1,1.27.529" transform="translate(-450.184 144.335)" fill="#e1a33e"/>
          <path id="Path_6648" data-name="Path 6648" d="M470.872-142.482a.5.5,0,0,1,.157.385v3.7a.51.51,0,0,1-.157.381.549.549,0,0,1-.4.153.537.537,0,0,1-.395-.149.536.536,0,0,1-.163-.375,1.889,1.889,0,0,1-.625.433,1.981,1.981,0,0,1-.831.179,2.209,2.209,0,0,1-1.159-.311,2.227,2.227,0,0,1-.821-.862,2.574,2.574,0,0,1-.3-1.252,2.633,2.633,0,0,1,.3-1.256,2.2,2.2,0,0,1,.812-.865,2.152,2.152,0,0,1,1.135-.311,2.262,2.262,0,0,1,.836.154,2.213,2.213,0,0,1,.657.388v-.008a.51.51,0,0,1,.158-.38.549.549,0,0,1,.4-.154.559.559,0,0,1,.4.15m-1.289,3.329a1.489,1.489,0,0,0,.38-1.046,1.508,1.508,0,0,0-.38-1.05,1.265,1.265,0,0,0-.983-.42,1.255,1.255,0,0,0-.974.42,1.508,1.508,0,0,0-.38,1.05,1.5,1.5,0,0,0,.375,1.046,1.258,1.258,0,0,0,.978.416,1.272,1.272,0,0,0,.983-.416" transform="translate(-452.14 144.338)" fill="#e1a33e"/>
          <path id="Path_6649" data-name="Path 6649" d="M476.713-142.482a.434.434,0,0,1,.19.35.524.524,0,0,1-.148.407.5.5,0,0,1-.352.136.957.957,0,0,1-.315-.061l-.126-.035a.827.827,0,0,0-.209-.026.862.862,0,0,0-.463.14,1.045,1.045,0,0,0-.366.424,1.5,1.5,0,0,0-.144.679v2.074a.511.511,0,0,1-.157.382.551.551,0,0,1-.4.153.55.55,0,0,1-.4-.153.512.512,0,0,1-.159-.382v-3.614a.51.51,0,0,1,.159-.381.547.547,0,0,1,.4-.153.549.549,0,0,1,.4.153.509.509,0,0,1,.157.381v.114a1.375,1.375,0,0,1,.612-.546,1.969,1.969,0,0,1,.853-.189.736.736,0,0,1,.468.149" transform="translate(-453.571 144.335)" fill="#e1a33e"/>
          <path id="Path_6650" data-name="Path 6650" d="M481.163-139.018a.448.448,0,0,1,.107.311.467.467,0,0,1-.274.4,1.193,1.193,0,0,1-.617.162,1.887,1.887,0,0,1-.969-.232,1.054,1.054,0,0,1-.394-.985v-2.416h-.427a.52.52,0,0,1-.37-.14.46.46,0,0,1-.148-.35.434.434,0,0,1,.148-.337.531.531,0,0,1,.37-.136h.427v-.56a.5.5,0,0,1,.163-.38.565.565,0,0,1,.4-.153.537.537,0,0,1,.389.153.507.507,0,0,1,.157.38v.56h.659a.521.521,0,0,1,.371.14.461.461,0,0,1,.149.35.437.437,0,0,1-.149.337.528.528,0,0,1-.371.136h-.659v2.371a.322.322,0,0,0,.1.267.424.424,0,0,0,.277.083.824.824,0,0,0,.2-.035.589.589,0,0,1,.214-.044.315.315,0,0,1,.237.118" transform="translate(-454.416 144.623)" fill="#e1a33e"/>
          <path id="Path_6651" data-name="Path 6651" d="M491.719-139.036a.554.554,0,0,1,.037.188.493.493,0,0,1-.189.395.675.675,0,0,1-.441.157.54.54,0,0,1-.233-.053.509.509,0,0,1-.185-.149L488.7-141l-.881.8v1.375a.5.5,0,0,1-.162.384.6.6,0,0,1-.423.15.579.579,0,0,1-.412-.153.506.506,0,0,1-.163-.381v-5.059a.5.5,0,0,1,.168-.38.608.608,0,0,1,.427-.154.571.571,0,0,1,.408.15.508.508,0,0,1,.157.385v2.381l2.967-2.757a.658.658,0,0,1,.454-.2.468.468,0,0,1,.362.167.517.517,0,0,1,.147.35.464.464,0,0,1-.167.341l-2.021,1.82,2.068,2.581a.6.6,0,0,1,.092.171" transform="translate(-456.058 144.772)" fill="#e1a33e"/>
          <path id="Path_6652" data-name="Path 6652" d="M497.995-142.364a.509.509,0,0,1,.158.381v2.223a1.962,1.962,0,0,1-.551,1.479,2.171,2.171,0,0,1-1.572.533,2.152,2.152,0,0,1-1.566-.533,1.972,1.972,0,0,1-.548-1.479v-2.223a.514.514,0,0,1,.158-.381.549.549,0,0,1,.4-.153.55.55,0,0,1,.4.153.509.509,0,0,1,.157.381v2.223a1.1,1.1,0,0,0,.25.792,1,1,0,0,0,.75.258,1.015,1.015,0,0,0,.761-.258,1.1,1.1,0,0,0,.25-.792v-2.223a.507.507,0,0,1,.159-.381.547.547,0,0,1,.4-.153.548.548,0,0,1,.4.153" transform="translate(-457.448 144.309)" fill="#e1a33e"/>
          <path id="Path_6653" data-name="Path 6653" d="M504.606-142.1a2.576,2.576,0,0,1,.361,1.466v2.24a.509.509,0,0,1-.157.381.548.548,0,0,1-.4.153.547.547,0,0,1-.4-.153.508.508,0,0,1-.158-.381v-2.24a1.214,1.214,0,0,0-.213-.757.875.875,0,0,0-.734-.276,1.169,1.169,0,0,0-.843.293.979.979,0,0,0-.307.74v2.24a.508.508,0,0,1-.157.381.55.55,0,0,1-.4.153.548.548,0,0,1-.4-.153.508.508,0,0,1-.158-.381v-3.614a.509.509,0,0,1,.158-.381.548.548,0,0,1,.4-.153.55.55,0,0,1,.4.153.509.509,0,0,1,.157.381v.148a2.235,2.235,0,0,1,.654-.543,1.775,1.775,0,0,1,.885-.227,1.474,1.474,0,0,1,1.308.529" transform="translate(-458.736 144.335)" fill="#e1a33e"/>
          <path id="Path_6654" data-name="Path 6654" d="M511.919-142.482a.506.506,0,0,1,.158.385v3.894a1.826,1.826,0,0,1-.7,1.579,2.927,2.927,0,0,1-1.776.512,4.632,4.632,0,0,1-.765-.087,3.573,3.573,0,0,1-.69-.175q-.455-.184-.455-.508a.43.43,0,0,1,.028-.14.542.542,0,0,1,.189-.293.48.48,0,0,1,.293-.1.576.576,0,0,1,.175.027c.025.005.178.06.459.161a2.264,2.264,0,0,0,.765.154,1.682,1.682,0,0,0,1.024-.259.865.865,0,0,0,.339-.73v-.421a1.837,1.837,0,0,1-.617.491,1.871,1.871,0,0,1-.885.218,2.3,2.3,0,0,1-1.182-.311,2.238,2.238,0,0,1-.839-.862,2.54,2.54,0,0,1-.306-1.252,2.589,2.589,0,0,1,.3-1.256,2.2,2.2,0,0,1,.825-.865,2.237,2.237,0,0,1,1.164-.311,2.1,2.1,0,0,1,.881.185,2.062,2.062,0,0,1,.659.446v-.1a.5.5,0,0,1,.158-.38.548.548,0,0,1,.4-.154.559.559,0,0,1,.4.15m-1.3,3.329a1.46,1.46,0,0,0,.394-1.046,1.478,1.478,0,0,0-.394-1.05,1.33,1.33,0,0,0-1.015-.42,1.316,1.316,0,0,0-1.011.42,1.49,1.49,0,0,0-.389,1.05,1.472,1.472,0,0,0,.389,1.046,1.324,1.324,0,0,0,1.011.416,1.338,1.338,0,0,0,1.015-.416" transform="translate(-459.978 144.338)" fill="#e1a33e"/>
          <path id="Path_6655" data-name="Path 6655" d="M519.028-142.482a.505.505,0,0,1,.158.385v3.7a.511.511,0,0,1-.158.381.548.548,0,0,1-.4.153.536.536,0,0,1-.394-.149.531.531,0,0,1-.162-.375,1.891,1.891,0,0,1-.626.433,1.982,1.982,0,0,1-.831.179,2.206,2.206,0,0,1-1.158-.311,2.219,2.219,0,0,1-.82-.862,2.562,2.562,0,0,1-.3-1.252,2.624,2.624,0,0,1,.3-1.256,2.195,2.195,0,0,1,.811-.865,2.152,2.152,0,0,1,1.135-.311,2.262,2.262,0,0,1,.835.154,2.208,2.208,0,0,1,.658.388v-.008a.509.509,0,0,1,.157-.38.549.549,0,0,1,.4-.154.558.558,0,0,1,.4.15m-1.289,3.329a1.491,1.491,0,0,0,.38-1.046,1.51,1.51,0,0,0-.38-1.05,1.266,1.266,0,0,0-.984-.42,1.251,1.251,0,0,0-.973.42,1.508,1.508,0,0,0-.381,1.05,1.5,1.5,0,0,0,.376,1.046,1.256,1.256,0,0,0,.978.416,1.273,1.273,0,0,0,.984-.416" transform="translate(-461.354 144.338)" fill="#e1a33e"/>
          <path id="Path_6656" data-name="Path 6656" d="M525.7-142.632a2.63,2.63,0,0,1,.353,1.466v2.24a.51.51,0,0,1-.158.381.551.551,0,0,1-.4.153.549.549,0,0,1-.4-.153.508.508,0,0,1-.158-.381v-2.24a1.265,1.265,0,0,0-.2-.757.807.807,0,0,0-.7-.276,1.1,1.1,0,0,0-.811.293,1,1,0,0,0-.292.74v2.24a.508.508,0,0,1-.157.381.551.551,0,0,1-.4.153.549.549,0,0,1-.4-.153.509.509,0,0,1-.157-.381v-5.407a.511.511,0,0,1,.157-.382.552.552,0,0,1,.4-.153.554.554,0,0,1,.4.153.509.509,0,0,1,.157.382v1.934a2.217,2.217,0,0,1,.635-.539,1.68,1.68,0,0,1,.858-.223,1.415,1.415,0,0,1,1.27.529" transform="translate(-462.785 144.867)" fill="#e1a33e"/>
          <path id="Path_6657" data-name="Path 6657" d="M532.89-142.482a.505.505,0,0,1,.158.385v3.7a.511.511,0,0,1-.158.381.548.548,0,0,1-.4.153.538.538,0,0,1-.395-.149.533.533,0,0,1-.162-.375,1.9,1.9,0,0,1-.626.433,1.98,1.98,0,0,1-.83.179,2.2,2.2,0,0,1-1.158-.311,2.223,2.223,0,0,1-.821-.862,2.569,2.569,0,0,1-.3-1.252,2.628,2.628,0,0,1,.3-1.256,2.195,2.195,0,0,1,.811-.865,2.152,2.152,0,0,1,1.135-.311,2.262,2.262,0,0,1,.836.154,2.207,2.207,0,0,1,.658.388v-.008a.509.509,0,0,1,.157-.38.549.549,0,0,1,.4-.154.559.559,0,0,1,.4.15m-1.289,3.329a1.489,1.489,0,0,0,.38-1.046,1.508,1.508,0,0,0-.38-1.05,1.265,1.265,0,0,0-.983-.42,1.252,1.252,0,0,0-.973.42,1.51,1.51,0,0,0-.381,1.05,1.5,1.5,0,0,0,.376,1.046,1.256,1.256,0,0,0,.978.416,1.272,1.272,0,0,0,.983-.416" transform="translate(-464.007 144.338)" fill="#e1a33e"/>
          <path id="Path_6658" data-name="Path 6658" d="M538.73-142.482a.436.436,0,0,1,.19.35.524.524,0,0,1-.148.407.5.5,0,0,1-.353.136.952.952,0,0,1-.315-.061l-.126-.035a.831.831,0,0,0-.209-.026.86.86,0,0,0-.463.14,1.037,1.037,0,0,0-.366.424,1.5,1.5,0,0,0-.144.679v2.074a.511.511,0,0,1-.157.382.552.552,0,0,1-.4.153.55.55,0,0,1-.4-.153.512.512,0,0,1-.158-.382v-3.614a.511.511,0,0,1,.158-.381.548.548,0,0,1,.4-.153.55.55,0,0,1,.4.153.51.51,0,0,1,.157.381v.114a1.368,1.368,0,0,1,.612-.546,1.968,1.968,0,0,1,.853-.189.735.735,0,0,1,.468.149" transform="translate(-465.438 144.335)" fill="#e1a33e"/>
          <path id="Path_6659" data-name="Path 6659" d="M544.872-142.482a.505.505,0,0,1,.158.385v3.7a.511.511,0,0,1-.158.381.548.548,0,0,1-.4.153.538.538,0,0,1-.395-.149.532.532,0,0,1-.162-.375,1.893,1.893,0,0,1-.626.433,1.98,1.98,0,0,1-.83.179,2.206,2.206,0,0,1-1.158-.311,2.221,2.221,0,0,1-.821-.862,2.562,2.562,0,0,1-.3-1.252,2.623,2.623,0,0,1,.3-1.256,2.193,2.193,0,0,1,.811-.865,2.152,2.152,0,0,1,1.135-.311,2.26,2.26,0,0,1,.836.154,2.207,2.207,0,0,1,.658.388v-.008a.509.509,0,0,1,.157-.38.549.549,0,0,1,.4-.154.558.558,0,0,1,.4.15m-1.289,3.329a1.489,1.489,0,0,0,.38-1.046,1.508,1.508,0,0,0-.38-1.05,1.264,1.264,0,0,0-.983-.42,1.251,1.251,0,0,0-.973.42,1.509,1.509,0,0,0-.381,1.05,1.5,1.5,0,0,0,.376,1.046,1.256,1.256,0,0,0,.977.416,1.271,1.271,0,0,0,.983-.416" transform="translate(-466.299 144.338)" fill="#e1a33e"/>
          <path id="Path_6660" data-name="Path 6660" d="M551.814-138.38a2.782,2.782,0,0,1-.973-.534.6.6,0,0,1-.251-.464.48.48,0,0,1,.158-.354.526.526,0,0,1,.38-.153.514.514,0,0,1,.315.1,2.731,2.731,0,0,0,.724.421,2.393,2.393,0,0,0,.834.131,1.753,1.753,0,0,0,.894-.218.634.634,0,0,0,.376-.543.688.688,0,0,0-.371-.617,3.273,3.273,0,0,0-1.177-.337q-2.031-.281-2.031-1.785a1.552,1.552,0,0,1,.305-.959,1.927,1.927,0,0,1,.835-.622,3.127,3.127,0,0,1,1.177-.214,3.536,3.536,0,0,1,1.1.166,2.7,2.7,0,0,1,.857.437.575.575,0,0,1,.269.464.481.481,0,0,1-.158.354.514.514,0,0,1-.371.153.422.422,0,0,1-.25-.079,2.521,2.521,0,0,0-.673-.337,2.357,2.357,0,0,0-.775-.153,1.671,1.671,0,0,0-.9.205.62.62,0,0,0-.32.538.62.62,0,0,0,.329.569,3.255,3.255,0,0,0,1.034.315,5.634,5.634,0,0,1,1.276.337,1.613,1.613,0,0,1,.718.559,1.654,1.654,0,0,1,.241.942,1.513,1.513,0,0,1-.329.966,2.107,2.107,0,0,1-.876.639,3.082,3.082,0,0,1-1.178.223,4.087,4.087,0,0,1-1.187-.157" transform="translate(-468.291 144.783)" fill="#e1a33e"/>
          <path id="Path_6661" data-name="Path 6661" d="M561.8-142.364a.51.51,0,0,1,.158.381v3.719a2,2,0,0,1-.649,1.658,2.7,2.7,0,0,1-1.734.521,4.461,4.461,0,0,1-.644-.048,2.518,2.518,0,0,1-.533-.128q-.454-.183-.455-.508a.43.43,0,0,1,.028-.14.535.535,0,0,1,.19-.293.475.475,0,0,1,.292-.1.61.61,0,0,1,.176.026c.043.018.119.047.226.088a2.377,2.377,0,0,0,.344.1,1.783,1.783,0,0,0,.375.04,1.464,1.464,0,0,0,.969-.267,1.152,1.152,0,0,0,.311-.914v-.088a1.86,1.86,0,0,1-1.5.569,1.685,1.685,0,0,1-.854-.214,1.488,1.488,0,0,1-.575-.6,1.812,1.812,0,0,1-.2-.87v-2.555a.513.513,0,0,1,.158-.381.549.549,0,0,1,.4-.153.551.551,0,0,1,.4.153.508.508,0,0,1,.157.381v2.24a1.055,1.055,0,0,0,.255.792,1.049,1.049,0,0,0,.746.24,1,1,0,0,0,.747-.267,1.042,1.042,0,0,0,.264-.765v-2.24a.507.507,0,0,1,.159-.381.547.547,0,0,1,.4-.153.548.548,0,0,1,.4.153" transform="translate(-469.655 144.309)" fill="#e1a33e"/>
          <path id="Path_6662" data-name="Path 6662" d="M563.881-138.851a.455.455,0,0,1,.241-.385.508.508,0,0,1,.268-.079.536.536,0,0,1,.371.166,1.945,1.945,0,0,0,.58.4,1.809,1.809,0,0,0,.727.131q.724-.026.724-.516a.416.416,0,0,0-.246-.385,3.6,3.6,0,0,0-.765-.263,6.861,6.861,0,0,1-.876-.28,1.54,1.54,0,0,1-.585-.424,1.135,1.135,0,0,1-.246-.766,1.119,1.119,0,0,1,.255-.73,1.672,1.672,0,0,1,.667-.481,2.257,2.257,0,0,1,.876-.171,2.843,2.843,0,0,1,.946.166,1.647,1.647,0,0,1,.742.49.473.473,0,0,1,.12.314.4.4,0,0,1-.176.334.483.483,0,0,1-.3.1.467.467,0,0,1-.334-.123,1.183,1.183,0,0,0-.431-.307,1.517,1.517,0,0,0-.6-.113q-.7,0-.705.481a.4.4,0,0,0,.13.311.877.877,0,0,0,.329.184c.133.044.319.1.56.162a6.385,6.385,0,0,1,.835.272,1.429,1.429,0,0,1,.565.428,1.187,1.187,0,0,1,.231.762,1.128,1.128,0,0,1-.269.749,1.69,1.69,0,0,1-.691.485,2.331,2.331,0,0,1-.867.166,3.311,3.311,0,0,1-1.14-.192,1.883,1.883,0,0,1-.862-.621.407.407,0,0,1-.083-.263" transform="translate(-470.834 144.335)" fill="#e1a33e"/>
          <path id="Path_6663" data-name="Path 6663" d="M572.384-139.018a.444.444,0,0,1,.107.311.467.467,0,0,1-.274.4,1.193,1.193,0,0,1-.616.162,1.883,1.883,0,0,1-.969-.232,1.053,1.053,0,0,1-.394-.985v-2.416h-.427a.52.52,0,0,1-.371-.14.462.462,0,0,1-.148-.35.436.436,0,0,1,.148-.337.53.53,0,0,1,.371-.136h.427v-.56a.5.5,0,0,1,.162-.38.565.565,0,0,1,.4-.153.537.537,0,0,1,.389.153.507.507,0,0,1,.158.38v.56h.658a.52.52,0,0,1,.371.14.463.463,0,0,1,.149.35.439.439,0,0,1-.149.337.527.527,0,0,1-.371.136h-.658v2.371a.324.324,0,0,0,.1.267.423.423,0,0,0,.277.083.811.811,0,0,0,.2-.035.588.588,0,0,1,.214-.044.314.314,0,0,1,.237.118" transform="translate(-471.871 144.623)" fill="#e1a33e"/>
          <path id="Path_6664" data-name="Path 6664" d="M578.706-139.971a.611.611,0,0,1-.39.131h-3.06a1.311,1.311,0,0,0,.51.81,1.479,1.479,0,0,0,.9.293,2.116,2.116,0,0,0,.594-.066,1.6,1.6,0,0,0,.339-.14l.171-.1a.735.735,0,0,1,.315-.079.471.471,0,0,1,.334.131.409.409,0,0,1,.139.306.541.541,0,0,1-.26.43,2.294,2.294,0,0,1-.694.341,2.877,2.877,0,0,1-.881.14,2.855,2.855,0,0,1-1.359-.307,2.193,2.193,0,0,1-.894-.844,2.347,2.347,0,0,1-.315-1.212,2.565,2.565,0,0,1,.334-1.322,2.3,2.3,0,0,1,.88-.87,2.38,2.38,0,0,1,1.168-.3,2.263,2.263,0,0,1,1.155.315,2.423,2.423,0,0,1,.867.849,2.177,2.177,0,0,1,.325,1.154.442.442,0,0,1-.176.342m-3.44-.744h2.429v-.061a.894.894,0,0,0-.38-.63,1.245,1.245,0,0,0-.78-.263,1.136,1.136,0,0,0-1.27.953" transform="translate(-472.799 144.338)" fill="#e1a33e"/>
          <path id="Path_6665" data-name="Path 6665" d="M588.138-142.1a2.631,2.631,0,0,1,.353,1.466v2.24a.509.509,0,0,1-.158.381.55.55,0,0,1-.4.153.548.548,0,0,1-.4-.153.508.508,0,0,1-.157-.381v-2.24a1.265,1.265,0,0,0-.2-.757.808.808,0,0,0-.7-.276,1.1,1.1,0,0,0-.811.293,1,1,0,0,0-.292.74v2.24a.508.508,0,0,1-.157.381.551.551,0,0,1-.4.153.549.549,0,0,1-.4-.153.51.51,0,0,1-.158-.381v-2.24a1.273,1.273,0,0,0-.2-.757.808.808,0,0,0-.7-.276,1.093,1.093,0,0,0-.811.293,1,1,0,0,0-.293.74v2.24a.508.508,0,0,1-.157.381.55.55,0,0,1-.4.153.548.548,0,0,1-.4-.153.51.51,0,0,1-.158-.381v-3.614a.511.511,0,0,1,.158-.381.549.549,0,0,1,.4-.153.551.551,0,0,1,.4.153.509.509,0,0,1,.157.381v.14a2.22,2.22,0,0,1,.636-.539,1.678,1.678,0,0,1,.857-.223,1.4,1.4,0,0,1,1.494.962,2.109,2.109,0,0,1,.644-.666,1.686,1.686,0,0,1,.978-.3,1.415,1.415,0,0,1,1.271.529" transform="translate(-474.138 144.335)" fill="#e1a33e"/>
        </g>
      </g>
      <path id="Path_6666" data-name="Path 6666" d="M375.281-245.712a18.308,18.308,0,0,0-7.977-6.536,1.932,1.932,0,0,0-2.446.947,1.449,1.449,0,0,0-.032,1.186,1.493,1.493,0,0,0,.871.823,14.749,14.749,0,0,1,6.813,5.487,26.8,26.8,0,0,1,4.575,15.539c-.008,11.147-5.838,20.365-13.426,21.524a22.35,22.35,0,0,0,2.225-6.934c.731-5.112-.423-10.5-3.525-16.474-3.3-6.353-1.114-14.476,1.3-20.171.28-.662.581-1.331.894-1.988.846-1.781,1.632-3.174,2.1-3.965a4.067,4.067,0,0,0,3.167-.748,3.917,3.917,0,0,0,1.554-2.827,3.939,3.939,0,0,0-2.806-4.03,4.087,4.087,0,0,0-3.251.391,3.931,3.931,0,0,0-1.864,2.631,3.848,3.848,0,0,0,.687,3.017,51.759,51.759,0,0,0-2.433,4.594c-4.886.128-9.436,2.789-12.828,7.516a30.1,30.1,0,0,0-5.215,17.441,30.1,30.1,0,0,0,5.19,17.449,18.326,18.326,0,0,0,7.916,6.506,1.354,1.354,0,0,0,.5.1,1.328,1.328,0,0,0,1.127-.621l.221-.352a1.534,1.534,0,0,0,.162-1.29,1.6,1.6,0,0,0-.905-.977c-6.382-2.687-10.835-11.245-10.828-20.811a26.807,26.807,0,0,1,4.6-15.532,13.889,13.889,0,0,1,8.578-5.948c-.153.4-.3.8-.442,1.2-2.727,7.755-2.753,14.581-.074,19.74,4.438,8.545,4.545,15.482.348,22.493-.37.618-.783,1.25-1.229,1.881-.651.921-1.374,1.848-2.145,2.747l-2.069,2.334a4.027,4.027,0,0,0-2.013-.582,4.012,4.012,0,0,0-3.924,2.845,3.858,3.858,0,0,0,.556,3.3,4.012,4.012,0,0,0,2.954,1.682c.112.01.223.014.333.014a4.037,4.037,0,0,0,3.775-2.613,3.834,3.834,0,0,0,.115-2.234l2.533-2.858a39.711,39.711,0,0,0,2.676-3.491c.148.006.3.014.439.01,5.027,0,9.714-2.673,13.2-7.527a30.1,30.1,0,0,0,5.215-17.441,30.1,30.1,0,0,0-5.189-17.449m-8.852-14.8a1.032,1.032,0,0,1,.938-.629h0a1.03,1.03,0,0,1,.86.441.988.988,0,0,1,.1.949,1.032,1.032,0,0,1-.938.628h0a1.029,1.029,0,0,1-.859-.44.988.988,0,0,1-.105-.948m-14.859,64.1a1.033,1.033,0,0,1,.937-.629h0a1.032,1.032,0,0,1,.86.44.99.99,0,0,1,.1.949h0a1.031,1.031,0,0,1-.938.628h0a1.03,1.03,0,0,1-.859-.44.989.989,0,0,1-.1-.948" transform="translate(0.545 0)" fill="#fff"/>
    </g>
  </g>
</svg>
