<svg xmlns="http://www.w3.org/2000/svg" width="117.628" height="99.03" viewBox="0 0 117.628 99.03">
  <g id="ico_impact_locations" transform="translate(0 0)">
    <path id="Path_7082" data-name="Path 7082" d="M108.744,26.906c-.809,0-1.314.421-1.314,1.169a1.178,1.178,0,0,0,1.314,1.216,1.138,1.138,0,0,0,1.263-1.216C110.17,27.327,109.553,26.906,108.744,26.906Zm5.155,0c-.809,0-1.314.421-1.314,1.169a1.318,1.318,0,0,0,2.628,0C115.375,27.327,114.708,26.906,113.9,26.906Zm-10.36,4.909a1.217,1.217,0,1,0,0,2.431,1.178,1.178,0,0,0,1.314-1.216C105.015,32.283,104.348,31.816,103.539,31.816Zm5.206,0a1.219,1.219,0,1,0,0,2.431,1.138,1.138,0,0,0,1.263-1.216C110.17,32.283,109.553,31.816,108.744,31.816Zm5.155,0a1.219,1.219,0,1,0,1.314,1.216C115.375,32.283,114.708,31.816,113.9,31.816ZM98.384,36.632A1.339,1.339,0,0,0,97.07,37.8a1.38,1.38,0,0,0,1.314,1.216A1.215,1.215,0,0,0,99.647,37.8,1.1,1.1,0,0,0,98.384,36.632Zm5.155,0a1.18,1.18,0,0,0-1.263,1.169,1.215,1.215,0,0,0,1.263,1.216,1.261,1.261,0,0,0,1.314-1.216C105.015,37.052,104.348,36.632,103.539,36.632Zm5.206,0A1.226,1.226,0,0,0,107.43,37.8a1.261,1.261,0,0,0,1.314,1.216,1.215,1.215,0,0,0,1.263-1.216C110.17,37.052,109.553,36.632,108.744,36.632Zm5.155,0a1.226,1.226,0,0,0-1.314,1.169,1.318,1.318,0,0,0,2.628,0C115.375,37.052,114.708,36.632,113.9,36.632Zm5.155,0a1.18,1.18,0,0,0-1.263,1.169,1.215,1.215,0,0,0,1.263,1.216,1.261,1.261,0,0,0,1.314-1.216C120.53,37.052,119.863,36.632,119.054,36.632ZM98.384,41.4a1.38,1.38,0,0,0-1.314,1.216,1.228,1.228,0,0,0,1.314,1.169,1.18,1.18,0,0,0,1.263-1.169A1.215,1.215,0,0,0,98.384,41.4Zm5.155,0a1.215,1.215,0,0,0-1.263,1.216,1.1,1.1,0,0,0,1.263,1.169,1.226,1.226,0,0,0,1.314-1.169C105.015,42.018,104.348,41.4,103.539,41.4Zm5.206,0a1.261,1.261,0,0,0-1.314,1.216c0,.748.505,1.169,1.314,1.169a1.18,1.18,0,0,0,1.263-1.169C110.17,42.018,109.553,41.4,108.744,41.4Zm5.155,0a1.261,1.261,0,0,0-1.314,1.216c0,.748.505,1.169,1.314,1.169a1.226,1.226,0,0,0,1.314-1.169C115.375,42.018,114.708,41.4,113.9,41.4Zm5.155,0a1.215,1.215,0,0,0-1.263,1.216,1.1,1.1,0,0,0,1.263,1.169,1.226,1.226,0,0,0,1.314-1.169C120.53,42.018,119.863,41.4,119.054,41.4ZM56.791,46.217a1.18,1.18,0,0,0-1.263,1.169A1.222,1.222,0,0,0,56.791,48.6,1.38,1.38,0,0,0,58.1,47.386,1.339,1.339,0,0,0,56.791,46.217Zm5.206,0a1.226,1.226,0,0,0-1.314,1.169A1.266,1.266,0,0,0,62,48.6a1.222,1.222,0,0,0,1.263-1.216A1.288,1.288,0,0,0,62,46.217Zm5.155,0a1.288,1.288,0,0,0-1.263,1.169A1.222,1.222,0,0,0,67.151,48.6a1.178,1.178,0,0,0,1.314-1.216A1.226,1.226,0,0,0,67.151,46.217Zm5.357,0a1.226,1.226,0,0,0-1.314,1.169A1.266,1.266,0,0,0,72.508,48.6a1.222,1.222,0,0,0,1.263-1.216A1.288,1.288,0,0,0,72.508,46.217Zm5.155,0A1.18,1.18,0,0,0,76.4,47.386,1.138,1.138,0,0,0,77.663,48.6a1.178,1.178,0,0,0,1.314-1.216A1.226,1.226,0,0,0,77.663,46.217Zm10.36,0a1.226,1.226,0,0,0-1.314,1.169,1.318,1.318,0,0,0,2.628,0C89.5,46.787,88.832,46.217,88.024,46.217Zm5.155,0a1.288,1.288,0,0,0-1.263,1.169A1.222,1.222,0,0,0,93.178,48.6a1.309,1.309,0,0,0,1.466-1.216A1.378,1.378,0,0,0,93.178,46.217Zm5.206,0a1.339,1.339,0,0,0-1.314,1.169A1.266,1.266,0,0,0,98.384,48.6a1.138,1.138,0,0,0,1.263-1.216A1.18,1.18,0,0,0,98.384,46.217Zm5.155,0a1.18,1.18,0,0,0-1.263,1.169,1.138,1.138,0,0,0,1.263,1.216,1.178,1.178,0,0,0,1.314-1.216C105.015,46.787,104.348,46.217,103.539,46.217Zm5.206,0a1.226,1.226,0,0,0-1.314,1.169,1.178,1.178,0,0,0,1.314,1.216,1.138,1.138,0,0,0,1.263-1.216C110.17,46.787,109.553,46.217,108.744,46.217Zm5.155,0a1.226,1.226,0,0,0-1.314,1.169,1.318,1.318,0,0,0,2.628,0C115.375,46.787,114.708,46.217,113.9,46.217Zm5.155,0a1.18,1.18,0,0,0-1.263,1.169,1.138,1.138,0,0,0,1.263,1.216,1.178,1.178,0,0,0,1.314-1.216C120.53,46.787,119.863,46.217,119.054,46.217Zm5.205,0a1.226,1.226,0,0,0-1.314,1.169A1.178,1.178,0,0,0,124.26,48.6a1.138,1.138,0,0,0,1.263-1.216C125.685,46.787,125.069,46.217,124.26,46.217Zm5.155,0a1.18,1.18,0,0,0-1.263,1.169,1.222,1.222,0,0,0,1.263,1.216,1.266,1.266,0,0,0,1.314-1.216C130.891,46.787,130.223,46.217,129.415,46.217ZM56.791,50.986A1.138,1.138,0,0,0,55.527,52.2a1.184,1.184,0,0,0,1.263,1.169A1.339,1.339,0,0,0,58.1,52.2,1.38,1.38,0,0,0,56.791,50.986Zm-10.512.14a1.36,1.36,0,0,0-1.415,1.216,1.325,1.325,0,0,0,1.415,1.169,1.339,1.339,0,0,0,1.314-1.169A1.178,1.178,0,0,0,46.278,51.126Zm5.206,0a1.38,1.38,0,0,0-1.314,1.216,1.339,1.339,0,0,0,1.314,1.169,1.18,1.18,0,0,0,1.263-1.169A1.138,1.138,0,0,0,51.484,51.126Zm10.512,0a1.261,1.261,0,0,0-1.314,1.216A1.339,1.339,0,0,0,62,53.511a1.288,1.288,0,0,0,1.263-1.169A1.222,1.222,0,0,0,62,51.126Zm5.155,0a1.329,1.329,0,0,0-1.263,1.216,1.288,1.288,0,0,0,1.263,1.169,1.226,1.226,0,0,0,1.314-1.169A1.178,1.178,0,0,0,67.151,51.126Zm5.357,0a1.261,1.261,0,0,0-1.314,1.216,1.339,1.339,0,0,0,1.314,1.169,1.288,1.288,0,0,0,1.263-1.169A1.222,1.222,0,0,0,72.508,51.126Zm5.155,0A1.215,1.215,0,0,0,76.4,52.342a1.18,1.18,0,0,0,1.263,1.169,1.226,1.226,0,0,0,1.314-1.169A1.178,1.178,0,0,0,77.663,51.126Zm5.206,0a1.261,1.261,0,0,0-1.314,1.216,1.339,1.339,0,0,0,1.314,1.169,1.288,1.288,0,0,0,1.263-1.169C84.294,51.594,83.677,51.126,82.869,51.126Zm5.155,0a1.261,1.261,0,0,0-1.314,1.216,1.323,1.323,0,0,0,2.628,0C89.5,51.594,88.832,51.126,88.024,51.126Zm5.155,0a1.329,1.329,0,0,0-1.263,1.216,1.288,1.288,0,0,0,1.263,1.169,1.378,1.378,0,0,0,1.466-1.169A1.309,1.309,0,0,0,93.178,51.126Zm5.206,0a1.38,1.38,0,0,0-1.314,1.216,1.339,1.339,0,0,0,1.314,1.169,1.18,1.18,0,0,0,1.263-1.169A1.138,1.138,0,0,0,98.384,51.126Zm5.155,0a1.215,1.215,0,0,0-1.263,1.216,1.18,1.18,0,0,0,1.263,1.169,1.226,1.226,0,0,0,1.314-1.169C105.015,51.594,104.348,51.126,103.539,51.126Zm5.206,0a1.261,1.261,0,0,0-1.314,1.216,1.226,1.226,0,0,0,1.314,1.169,1.18,1.18,0,0,0,1.263-1.169C110.17,51.594,109.553,51.126,108.744,51.126Zm5.155,0a1.261,1.261,0,0,0-1.314,1.216,1.323,1.323,0,0,0,2.628,0C115.375,51.594,114.708,51.126,113.9,51.126Zm5.155,0a1.215,1.215,0,0,0-1.263,1.216,1.18,1.18,0,0,0,1.263,1.169,1.226,1.226,0,0,0,1.314-1.169C120.53,51.594,119.863,51.126,119.054,51.126Zm5.205,0a1.261,1.261,0,0,0-1.314,1.216,1.226,1.226,0,0,0,1.314,1.169,1.18,1.18,0,0,0,1.263-1.169C125.685,51.594,125.069,51.126,124.26,51.126Zm5.155,0a1.215,1.215,0,0,0-1.263,1.216,1.288,1.288,0,0,0,1.263,1.169,1.339,1.339,0,0,0,1.314-1.169C130.891,51.594,130.223,51.126,129.415,51.126ZM56.791,55.755a1.246,1.246,0,0,0-1.263,1.356,1.329,1.329,0,0,0,1.263,1.216,1.286,1.286,0,1,0,0-2.572Zm-10.512.187a1.325,1.325,0,0,0-1.415,1.169,1.263,1.263,0,0,0,1.415,1.216,1.38,1.38,0,0,0,1.314-1.216A1.226,1.226,0,0,0,46.278,55.942Zm5.206,0a1.339,1.339,0,0,0-1.314,1.169,1.266,1.266,0,0,0,1.314,1.216,1.215,1.215,0,0,0,1.263-1.216A1.18,1.18,0,0,0,51.484,55.942Zm10.512,0a1.226,1.226,0,0,0-1.314,1.169A1.266,1.266,0,0,0,62,58.327a1.329,1.329,0,0,0,1.263-1.216A1.288,1.288,0,0,0,62,55.942Zm5.155,0a1.288,1.288,0,0,0-1.263,1.169,1.222,1.222,0,0,0,1.263,1.216,1.261,1.261,0,0,0,1.314-1.216A1.226,1.226,0,0,0,67.151,55.942Zm5.357,0a1.226,1.226,0,0,0-1.314,1.169,1.266,1.266,0,0,0,1.314,1.216,1.329,1.329,0,0,0,1.263-1.216A1.288,1.288,0,0,0,72.508,55.942Zm5.155,0A1.18,1.18,0,0,0,76.4,57.111a1.138,1.138,0,0,0,1.263,1.216,1.261,1.261,0,0,0,1.314-1.216A1.226,1.226,0,0,0,77.663,55.942Zm5.206,0a1.226,1.226,0,0,0-1.314,1.169,1.266,1.266,0,0,0,1.314,1.216,1.329,1.329,0,0,0,1.263-1.216C84.294,56.512,83.677,55.942,82.869,55.942Zm5.155,0a1.226,1.226,0,0,0-1.314,1.169,1.266,1.266,0,0,0,1.314,1.216,1.38,1.38,0,0,0,1.314-1.216C89.5,56.512,88.832,55.942,88.024,55.942Zm5.155,0a1.288,1.288,0,0,0-1.263,1.169,1.222,1.222,0,0,0,1.263,1.216,1.412,1.412,0,0,0,1.466-1.216A1.378,1.378,0,0,0,93.178,55.942Zm5.206,0a1.339,1.339,0,0,0-1.314,1.169,1.266,1.266,0,0,0,1.314,1.216,1.215,1.215,0,0,0,1.263-1.216A1.18,1.18,0,0,0,98.384,55.942Zm5.155,0a1.18,1.18,0,0,0-1.263,1.169,1.138,1.138,0,0,0,1.263,1.216,1.261,1.261,0,0,0,1.314-1.216C105.015,56.512,104.348,55.942,103.539,55.942Zm5.206,0a1.226,1.226,0,0,0-1.314,1.169,1.178,1.178,0,0,0,1.314,1.216,1.215,1.215,0,0,0,1.263-1.216C110.17,56.512,109.553,55.942,108.744,55.942Zm5.155,0a1.226,1.226,0,0,0-1.314,1.169,1.178,1.178,0,0,0,1.314,1.216,1.261,1.261,0,0,0,1.314-1.216C115.375,56.512,114.708,55.942,113.9,55.942Zm5.155,0a1.18,1.18,0,0,0-1.263,1.169,1.138,1.138,0,0,0,1.263,1.216,1.261,1.261,0,0,0,1.314-1.216C120.53,56.512,119.863,55.942,119.054,55.942Zm5.205,0a1.226,1.226,0,0,0-1.314,1.169,1.178,1.178,0,0,0,1.314,1.216,1.215,1.215,0,0,0,1.263-1.216C125.685,56.512,125.069,55.942,124.26,55.942Zm5.155,0a1.18,1.18,0,0,0-1.263,1.169,1.222,1.222,0,0,0,1.263,1.216,1.38,1.38,0,0,0,1.314-1.216C130.891,56.512,130.223,55.942,129.415,55.942ZM41.123,60.711a1.261,1.261,0,0,0-1.314,1.216A1.339,1.339,0,0,0,41.123,63.1a1.228,1.228,0,0,0,1.314-1.169A1.266,1.266,0,0,0,41.123,60.711Zm5.155,0a1.36,1.36,0,0,0-1.415,1.216A1.325,1.325,0,0,0,46.278,63.1a1.228,1.228,0,0,0,1.314-1.169A1.178,1.178,0,0,0,46.278,60.711Zm5.206,0a1.38,1.38,0,0,0-1.314,1.216A1.339,1.339,0,0,0,51.484,63.1a1.1,1.1,0,0,0,1.263-1.169A1.138,1.138,0,0,0,51.484,60.711Zm5.307,0a1.215,1.215,0,0,0-1.263,1.216A1.184,1.184,0,0,0,56.791,63.1,1.228,1.228,0,0,0,58.1,61.927,1.38,1.38,0,0,0,56.791,60.711Zm5.206.14a1.178,1.178,0,0,0-1.314,1.216A1.228,1.228,0,0,0,62,63.236a1.184,1.184,0,0,0,1.263-1.169A1.222,1.222,0,0,0,62,60.851Zm5.155,0a1.222,1.222,0,0,0-1.263,1.216,1.184,1.184,0,0,0,1.263,1.169c.809,0,1.314-.421,1.314-1.169A1.178,1.178,0,0,0,67.151,60.851Zm5.357,0a1.178,1.178,0,0,0-1.314,1.216,1.228,1.228,0,0,0,1.314,1.169,1.184,1.184,0,0,0,1.263-1.169A1.222,1.222,0,0,0,72.508,60.851Zm5.155,0A1.138,1.138,0,0,0,76.4,62.067a1.1,1.1,0,0,0,1.263,1.169c.809,0,1.314-.421,1.314-1.169A1.178,1.178,0,0,0,77.663,60.851Zm5.206,0a1.178,1.178,0,0,0-1.314,1.216,1.228,1.228,0,0,0,1.314,1.169,1.184,1.184,0,0,0,1.263-1.169A1.138,1.138,0,0,0,82.869,60.851Zm5.155,0a1.178,1.178,0,0,0-1.314,1.216,1.323,1.323,0,0,0,2.628,0A1.178,1.178,0,0,0,88.024,60.851Zm5.155,0a1.222,1.222,0,0,0-1.263,1.216,1.184,1.184,0,0,0,1.263,1.169c.809,0,1.466-.421,1.466-1.169A1.309,1.309,0,0,0,93.178,60.851Zm5.206,0a1.266,1.266,0,0,0-1.314,1.216,1.228,1.228,0,0,0,1.314,1.169,1.1,1.1,0,0,0,1.263-1.169A1.138,1.138,0,0,0,98.384,60.851Zm5.155,0a1.138,1.138,0,0,0-1.263,1.216,1.1,1.1,0,0,0,1.263,1.169c.809,0,1.314-.421,1.314-1.169A1.178,1.178,0,0,0,103.539,60.851Zm5.206,0a1.178,1.178,0,0,0-1.314,1.216c0,.748.505,1.169,1.314,1.169a1.1,1.1,0,0,0,1.263-1.169A1.138,1.138,0,0,0,108.744,60.851Zm5.155,0a1.178,1.178,0,0,0-1.314,1.216c0,.748.505,1.169,1.314,1.169s1.314-.421,1.314-1.169A1.178,1.178,0,0,0,113.9,60.851Zm5.155,0a1.138,1.138,0,0,0-1.263,1.216,1.1,1.1,0,0,0,1.263,1.169c.809,0,1.314-.421,1.314-1.169A1.178,1.178,0,0,0,119.054,60.851Zm5.205,0a1.178,1.178,0,0,0-1.314,1.216c0,.748.505,1.169,1.314,1.169a1.1,1.1,0,0,0,1.263-1.169A1.138,1.138,0,0,0,124.26,60.851Zm5.155,0a1.138,1.138,0,0,0-1.263,1.216,1.184,1.184,0,0,0,1.263,1.169,1.228,1.228,0,0,0,1.314-1.169A1.178,1.178,0,0,0,129.415,60.851Zm5.206,0a1.178,1.178,0,0,0-1.314,1.216,1.228,1.228,0,0,0,1.314,1.169,1.184,1.184,0,0,0,1.263-1.169A1.138,1.138,0,0,0,134.62,60.851Zm-93.5,4.629A1.178,1.178,0,0,0,39.809,66.7a1.266,1.266,0,0,0,1.314,1.216,1.219,1.219,0,1,0,0-2.431Zm5.155,0a1.23,1.23,0,1,0,0,2.431A1.38,1.38,0,0,0,47.592,66.7,1.261,1.261,0,0,0,46.278,65.48Zm5.206,0a1.219,1.219,0,1,0,0,2.431,1.217,1.217,0,1,0,0-2.431Zm5.307,0A1.138,1.138,0,0,0,55.527,66.7a1.222,1.222,0,0,0,1.263,1.216A1.38,1.38,0,0,0,58.1,66.7,1.266,1.266,0,0,0,56.791,65.48Zm5.206,0A1.178,1.178,0,0,0,60.682,66.7,1.266,1.266,0,0,0,62,67.912a1.217,1.217,0,1,0,0-2.431Zm5.155,0a1.217,1.217,0,1,0,0,2.431,1.219,1.219,0,1,0,0-2.431Zm5.357,0A1.178,1.178,0,0,0,71.194,66.7a1.266,1.266,0,0,0,1.314,1.216,1.217,1.217,0,1,0,0-2.431Zm5.155,0a1.217,1.217,0,1,0,0,2.431,1.219,1.219,0,1,0,0-2.431Zm5.206,0A1.178,1.178,0,0,0,81.555,66.7a1.266,1.266,0,0,0,1.314,1.216A1.329,1.329,0,0,0,84.132,66.7C84.294,66.1,83.677,65.48,82.869,65.48Zm5.307,0a1.217,1.217,0,1,0,0,2.431A1.261,1.261,0,0,0,89.489,66.7,1.38,1.38,0,0,0,88.175,65.48Zm5.206,0a1.219,1.219,0,1,0,0,2.431,1.217,1.217,0,1,0,0-2.431Zm5.155,0a1.219,1.219,0,1,0,0,2.431,1.219,1.219,0,1,0,0-2.431Zm5.357,0a1.178,1.178,0,0,0-1.314,1.216,1.266,1.266,0,0,0,1.314,1.216,1.217,1.217,0,1,0,0-2.431Zm5.155,0a1.219,1.219,0,1,0,1.314,1.216A1.266,1.266,0,0,0,109.048,65.48Zm5.155,0a1.217,1.217,0,1,0,0,2.431,1.219,1.219,0,1,0,0-2.431Zm5.357,0a1.261,1.261,0,0,0-1.314,1.216,1.318,1.318,0,0,0,2.628,0A1.38,1.38,0,0,0,119.56,65.48Zm5.155,0a1.217,1.217,0,1,0,0,2.431,1.266,1.266,0,0,0,1.314-1.216A1.38,1.38,0,0,0,124.715,65.48Zm5.205,0a1.38,1.38,0,0,0-1.314,1.216,1.266,1.266,0,0,0,1.314,1.216,1.138,1.138,0,0,0,1.263-1.216A1.215,1.215,0,0,0,129.92,65.48Zm5.155,0a1.215,1.215,0,0,0-1.263,1.216,1.138,1.138,0,0,0,1.263,1.216,1.178,1.178,0,0,0,1.314-1.216C136.551,66.1,135.884,65.48,135.075,65.48ZM35.766,70.436A1.138,1.138,0,0,0,34.5,71.652a1.18,1.18,0,0,0,1.263,1.169,1.226,1.226,0,0,0,1.314-1.169C37.242,70.9,36.575,70.436,35.766,70.436Zm5.357,0a1.178,1.178,0,0,0-1.314,1.216,1.323,1.323,0,0,0,2.628,0A1.266,1.266,0,0,0,41.123,70.436Zm5.155,0a1.263,1.263,0,0,0-1.415,1.216,1.325,1.325,0,0,0,1.415,1.169,1.339,1.339,0,0,0,1.314-1.169A1.178,1.178,0,0,0,46.278,70.436Zm5.206,0a1.266,1.266,0,0,0-1.314,1.216,1.339,1.339,0,0,0,1.314,1.169,1.18,1.18,0,0,0,1.263-1.169A1.138,1.138,0,0,0,51.484,70.436Zm5.307,0a1.138,1.138,0,0,0-1.263,1.216,1.184,1.184,0,0,0,1.263,1.169A1.339,1.339,0,0,0,58.1,71.652,1.266,1.266,0,0,0,56.791,70.436Zm5.206,0a1.261,1.261,0,0,0-1.314,1.216A1.339,1.339,0,0,0,62,72.821a1.288,1.288,0,0,0,1.263-1.169A1.329,1.329,0,0,0,62,70.436Zm5.155,0a1.329,1.329,0,0,0-1.263,1.216,1.288,1.288,0,0,0,1.263,1.169,1.226,1.226,0,0,0,1.314-1.169A1.261,1.261,0,0,0,67.151,70.436Zm5.357,0a1.261,1.261,0,0,0-1.314,1.216,1.339,1.339,0,0,0,1.314,1.169,1.288,1.288,0,0,0,1.263-1.169A1.329,1.329,0,0,0,72.508,70.436Zm5.155,0A1.215,1.215,0,0,0,76.4,71.652a1.18,1.18,0,0,0,1.263,1.169,1.226,1.226,0,0,0,1.314-1.169A1.261,1.261,0,0,0,77.663,70.436Zm5.206,0a1.261,1.261,0,0,0-1.314,1.216,1.339,1.339,0,0,0,1.314,1.169,1.288,1.288,0,0,0,1.263-1.169C84.294,71.054,83.677,70.436,82.869,70.436Zm5.307,0a1.329,1.329,0,0,0-1.263,1.216,1.288,1.288,0,0,0,1.263,1.169,1.226,1.226,0,0,0,1.314-1.169A1.38,1.38,0,0,0,88.175,70.436Zm5.206,0a1.261,1.261,0,0,0-1.314,1.216,1.226,1.226,0,0,0,1.314,1.169,1.18,1.18,0,0,0,1.263-1.169A1.215,1.215,0,0,0,93.381,70.436Zm5.155,0a1.261,1.261,0,0,0-1.314,1.216,1.323,1.323,0,0,0,2.628,0A1.261,1.261,0,0,0,98.536,70.436Zm5.357,0a1.261,1.261,0,0,0-1.314,1.216,1.339,1.339,0,0,0,1.314,1.169,1.288,1.288,0,0,0,1.263-1.169A1.329,1.329,0,0,0,103.893,70.436Zm5.155,0a1.38,1.38,0,0,0-1.314,1.216,1.339,1.339,0,0,0,1.314,1.169,1.226,1.226,0,0,0,1.314-1.169A1.261,1.261,0,0,0,109.048,70.436Zm5.155,0a1.215,1.215,0,0,0-1.263,1.216,1.18,1.18,0,0,0,1.263,1.169,1.226,1.226,0,0,0,1.314-1.169A1.261,1.261,0,0,0,114.2,70.436Zm5.357,0a1.261,1.261,0,0,0-1.314,1.216,1.323,1.323,0,0,0,2.628,0A1.266,1.266,0,0,0,119.56,70.436Zm5.155,0a1.215,1.215,0,0,0-1.263,1.216,1.288,1.288,0,0,0,1.263,1.169,1.339,1.339,0,0,0,1.314-1.169A1.266,1.266,0,0,0,124.715,70.436Zm5.205,0a1.38,1.38,0,0,0-1.314,1.216,1.339,1.339,0,0,0,1.314,1.169,1.18,1.18,0,0,0,1.263-1.169A1.138,1.138,0,0,0,129.92,70.436Zm5.155,0a1.215,1.215,0,0,0-1.263,1.216,1.18,1.18,0,0,0,1.263,1.169,1.226,1.226,0,0,0,1.314-1.169C136.551,70.9,135.884,70.436,135.075,70.436ZM35.766,75.206A1.215,1.215,0,0,0,34.5,76.421a1.138,1.138,0,0,0,1.263,1.216,1.237,1.237,0,1,0,0-2.431Zm5.357,0a1.219,1.219,0,1,0,0,2.431,1.219,1.219,0,1,0,0-2.431Zm5.155,0a1.36,1.36,0,0,0-1.415,1.216,1.263,1.263,0,0,0,1.415,1.216,1.38,1.38,0,0,0,1.314-1.216A1.261,1.261,0,0,0,46.278,75.206Zm5.206,0a1.38,1.38,0,0,0-1.314,1.216,1.266,1.266,0,0,0,1.314,1.216,1.217,1.217,0,1,0,0-2.431Zm5.307,0a1.215,1.215,0,0,0-1.263,1.216,1.329,1.329,0,0,0,1.263,1.216A1.38,1.38,0,0,0,58.1,76.421,1.266,1.266,0,0,0,56.791,75.206Zm5.206,0a1.219,1.219,0,1,0,0,2.431,1.217,1.217,0,1,0,0-2.431Zm5.155,0a1.329,1.329,0,0,0-1.263,1.216,1.222,1.222,0,0,0,1.263,1.216,1.219,1.219,0,1,0,0-2.431Zm5.357,0a1.219,1.219,0,1,0,0,2.431,1.217,1.217,0,1,0,0-2.431Zm5.155,0A1.215,1.215,0,0,0,76.4,76.421a1.138,1.138,0,0,0,1.263,1.216,1.219,1.219,0,1,0,0-2.431Zm5.206,0a1.219,1.219,0,1,0,0,2.431,1.329,1.329,0,0,0,1.263-1.216C84.294,75.823,83.677,75.206,82.869,75.206Zm5.307,0a1.329,1.329,0,0,0-1.263,1.216,1.222,1.222,0,0,0,1.263,1.216c.809,0,1.314-1.216,1.314-1.216S88.822,75.206,88.175,75.206Zm5.206,0a1.261,1.261,0,0,0-1.314,1.216,1.178,1.178,0,0,0,1.314,1.216,1.217,1.217,0,1,0,0-2.431Zm5.155,0a1.261,1.261,0,0,0-1.314,1.216,1.178,1.178,0,0,0,1.314,1.216,1.219,1.219,0,1,0,0-2.431Zm5.357,0a1.219,1.219,0,1,0,0,2.431,1.217,1.217,0,1,0,0-2.431Zm5.155,0a1.38,1.38,0,0,0-1.314,1.216,1.318,1.318,0,1,0,1.314-1.216Zm5.155,0a1.215,1.215,0,0,0-1.263,1.216,1.138,1.138,0,0,0,1.263,1.216,1.219,1.219,0,1,0,0-2.431Zm5.357,0a1.261,1.261,0,0,0-1.314,1.216,1.178,1.178,0,0,0,1.314,1.216,1.261,1.261,0,0,0,1.314-1.216A1.38,1.38,0,0,0,119.56,75.206Zm5.155,0a1.217,1.217,0,1,0,0,2.431,1.219,1.219,0,1,0,0-2.431Zm5.205,0a1.38,1.38,0,0,0-1.314,1.216,1.266,1.266,0,0,0,1.314,1.216,1.217,1.217,0,1,0,0-2.431Zm5.155,0a1.215,1.215,0,0,0-1.263,1.216,1.138,1.138,0,0,0,1.263,1.216,1.261,1.261,0,0,0,1.314-1.216C136.551,75.823,135.884,75.206,135.075,75.206ZM56.791,80.022a1.18,1.18,0,0,0-1.263,1.169,1.222,1.222,0,0,0,1.263,1.216A1.38,1.38,0,0,0,58.1,81.19,1.339,1.339,0,0,0,56.791,80.022Zm-21.024.14A1.215,1.215,0,0,0,34.5,81.377a1.18,1.18,0,0,0,1.263,1.169c.809,0,1.314-.421,1.314-1.169A1.178,1.178,0,0,0,35.766,80.162Zm5.357,0a1.261,1.261,0,0,0-1.314,1.216,1.339,1.339,0,0,0,1.314,1.169,1.228,1.228,0,0,0,1.314-1.169A1.266,1.266,0,0,0,41.123,80.162Zm5.155,0a1.36,1.36,0,0,0-1.415,1.216,1.325,1.325,0,0,0,1.415,1.169,1.228,1.228,0,0,0,1.314-1.169A1.178,1.178,0,0,0,46.278,80.162Zm5.206,0a1.38,1.38,0,0,0-1.314,1.216,1.339,1.339,0,0,0,1.314,1.169,1.1,1.1,0,0,0,1.263-1.169A1.138,1.138,0,0,0,51.484,80.162Zm10.512,0a1.261,1.261,0,0,0-1.314,1.216A1.339,1.339,0,0,0,62,82.546a1.184,1.184,0,0,0,1.263-1.169A1.222,1.222,0,0,0,62,80.162Zm5.155,0a1.329,1.329,0,0,0-1.263,1.216,1.288,1.288,0,0,0,1.263,1.169c.809,0,1.314-.421,1.314-1.169A1.178,1.178,0,0,0,67.151,80.162Zm5.357,0a1.261,1.261,0,0,0-1.314,1.216,1.339,1.339,0,0,0,1.314,1.169,1.184,1.184,0,0,0,1.263-1.169A1.222,1.222,0,0,0,72.508,80.162Zm5.155,0A1.215,1.215,0,0,0,76.4,81.377a1.18,1.18,0,0,0,1.263,1.169c.809,0,1.314-.421,1.314-1.169A1.178,1.178,0,0,0,77.663,80.162Zm5.206,0a1.261,1.261,0,0,0-1.314,1.216,1.339,1.339,0,0,0,1.314,1.169,1.184,1.184,0,0,0,1.263-1.169A1.138,1.138,0,0,0,82.869,80.162Zm5.307,0a1.329,1.329,0,0,0-1.263,1.216,1.288,1.288,0,0,0,1.263,1.169c.809,0,1.314-.421,1.314-1.169A1.266,1.266,0,0,0,88.175,80.162Zm5.206,0a1.261,1.261,0,0,0-1.314,1.216,1.226,1.226,0,0,0,1.314,1.169,1.1,1.1,0,0,0,1.263-1.169A1.138,1.138,0,0,0,93.381,80.162Zm5.155,0a1.261,1.261,0,0,0-1.314,1.216,1.226,1.226,0,0,0,1.314,1.169c.809,0,1.314-.421,1.314-1.169A1.178,1.178,0,0,0,98.536,80.162Zm5.357,0a1.261,1.261,0,0,0-1.314,1.216,1.339,1.339,0,0,0,1.314,1.169,1.184,1.184,0,0,0,1.263-1.169A1.222,1.222,0,0,0,103.893,80.162Zm5.155,0a1.38,1.38,0,0,0-1.314,1.216,1.339,1.339,0,0,0,1.314,1.169c.809,0,1.314-.421,1.314-1.169A1.178,1.178,0,0,0,109.048,80.162Zm5.155,0a1.215,1.215,0,0,0-1.263,1.216,1.18,1.18,0,0,0,1.263,1.169c.809,0,1.314-.421,1.314-1.169A1.178,1.178,0,0,0,114.2,80.162Zm5.357,0a1.178,1.178,0,0,0-1.314,1.216c0,.748.505,1.169,1.314,1.169s1.314-.421,1.314-1.169A1.266,1.266,0,0,0,119.56,80.162Zm5.155,0a1.138,1.138,0,0,0-1.263,1.216,1.184,1.184,0,0,0,1.263,1.169,1.228,1.228,0,0,0,1.314-1.169A1.266,1.266,0,0,0,124.715,80.162Zm5.205,0a1.266,1.266,0,0,0-1.314,1.216,1.228,1.228,0,0,0,1.314,1.169,1.1,1.1,0,0,0,1.263-1.169A1.138,1.138,0,0,0,129.92,80.162Zm5.155,0a1.138,1.138,0,0,0-1.263,1.216,1.1,1.1,0,0,0,1.263,1.169c.809,0,1.314-.421,1.314-1.169A1.178,1.178,0,0,0,135.075,80.162ZM56.791,84.791a1.215,1.215,0,0,0-1.263,1.216,1.288,1.288,0,0,0,1.263,1.169A1.228,1.228,0,0,0,58.1,86.006,1.266,1.266,0,0,0,56.791,84.791Zm-21.024.14a1.217,1.217,0,1,0,0,2.431,1.219,1.219,0,1,0,0-2.431Zm5.357,0a1.178,1.178,0,0,0-1.314,1.216,1.318,1.318,0,1,0,1.314-1.216Zm5.155,0a1.219,1.219,0,1,0,1.314,1.216A1.178,1.178,0,0,0,46.278,84.931Zm5.206,0a1.219,1.219,0,1,0,0,2.431,1.217,1.217,0,1,0,0-2.431Zm10.512,0a1.178,1.178,0,0,0-1.314,1.216A1.266,1.266,0,0,0,62,87.362a1.217,1.217,0,1,0,0-2.431Zm5.155,0a1.217,1.217,0,1,0,0,2.431,1.219,1.219,0,1,0,0-2.431Zm5.357,0a1.178,1.178,0,0,0-1.314,1.216,1.266,1.266,0,0,0,1.314,1.216,1.217,1.217,0,1,0,0-2.431Zm5.155,0a1.217,1.217,0,1,0,0,2.431,1.219,1.219,0,1,0,0-2.431Zm5.206,0a1.178,1.178,0,0,0-1.314,1.216,1.266,1.266,0,0,0,1.314,1.216,1.222,1.222,0,0,0,1.263-1.216A1.138,1.138,0,0,0,82.869,84.931Zm5.307,0a1.217,1.217,0,1,0,0,2.431,1.178,1.178,0,0,0,1.314-1.216A1.266,1.266,0,0,0,88.175,84.931Zm5.206,0a1.219,1.219,0,1,0,0,2.431,1.217,1.217,0,1,0,0-2.431Zm5.155,0a1.219,1.219,0,1,0,1.314,1.216A1.178,1.178,0,0,0,98.536,84.931Zm5.357,0a1.178,1.178,0,0,0-1.314,1.216,1.266,1.266,0,0,0,1.314,1.216,1.217,1.217,0,1,0,0-2.431Zm5.155,0a1.219,1.219,0,1,0,0,2.431,1.219,1.219,0,1,0,0-2.431Zm5.155,0a1.217,1.217,0,1,0,0,2.431,1.219,1.219,0,1,0,0-2.431Zm5.357,0a1.219,1.219,0,1,0,1.314,1.216A1.266,1.266,0,0,0,119.56,84.931Zm5.155,0a1.138,1.138,0,0,0-1.263,1.216,1.222,1.222,0,0,0,1.263,1.216,1.219,1.219,0,1,0,0-2.431Zm5.205,0a1.219,1.219,0,1,0,0,2.431,1.217,1.217,0,1,0,0-2.431Zm5.155,0a1.217,1.217,0,1,0,0,2.431,1.219,1.219,0,1,0,0-2.431ZM35.766,89.747A1.18,1.18,0,0,0,34.5,90.916a1.215,1.215,0,0,0,1.263,1.216,1.261,1.261,0,0,0,1.314-1.216C37.242,90.317,36.575,89.747,35.766,89.747Zm5.357,0a1.226,1.226,0,0,0-1.314,1.169,1.318,1.318,0,0,0,2.628,0A1.339,1.339,0,0,0,41.123,89.747Zm5.155,0a1.325,1.325,0,0,0-1.415,1.169,1.36,1.36,0,0,0,1.415,1.216,1.38,1.38,0,0,0,1.314-1.216A1.226,1.226,0,0,0,46.278,89.747Zm5.206,0a1.339,1.339,0,0,0-1.314,1.169,1.38,1.38,0,0,0,1.314,1.216,1.215,1.215,0,0,0,1.263-1.216A1.18,1.18,0,0,0,51.484,89.747Zm5.307,0a1.18,1.18,0,0,0-1.263,1.169,1.329,1.329,0,0,0,1.263,1.216A1.38,1.38,0,0,0,58.1,90.916,1.339,1.339,0,0,0,56.791,89.747Zm5.206,0a1.226,1.226,0,0,0-1.314,1.169A1.38,1.38,0,0,0,62,92.131a1.329,1.329,0,0,0,1.263-1.216A1.288,1.288,0,0,0,62,89.747Zm5.155,0a1.288,1.288,0,0,0-1.263,1.169,1.329,1.329,0,0,0,1.263,1.216,1.261,1.261,0,0,0,1.314-1.216A1.226,1.226,0,0,0,67.151,89.747Zm5.357,0a1.226,1.226,0,0,0-1.314,1.169,1.38,1.38,0,0,0,1.314,1.216,1.329,1.329,0,0,0,1.263-1.216A1.288,1.288,0,0,0,72.508,89.747Zm5.155,0A1.18,1.18,0,0,0,76.4,90.916a1.215,1.215,0,0,0,1.263,1.216,1.261,1.261,0,0,0,1.314-1.216A1.226,1.226,0,0,0,77.663,89.747Zm5.206,0a1.226,1.226,0,0,0-1.314,1.169,1.38,1.38,0,0,0,1.314,1.216,1.329,1.329,0,0,0,1.263-1.216C84.294,90.317,83.677,89.747,82.869,89.747Zm5.307,0a1.288,1.288,0,0,0-1.263,1.169,1.329,1.329,0,0,0,1.263,1.216,1.261,1.261,0,0,0,1.314-1.216A1.339,1.339,0,0,0,88.175,89.747Zm5.206,0a1.226,1.226,0,0,0-1.314,1.169,1.261,1.261,0,0,0,1.314,1.216,1.215,1.215,0,0,0,1.263-1.216A1.18,1.18,0,0,0,93.381,89.747Zm5.155,0a1.226,1.226,0,0,0-1.314,1.169,1.318,1.318,0,0,0,2.628,0A1.226,1.226,0,0,0,98.536,89.747Zm5.357,0a1.226,1.226,0,0,0-1.314,1.169,1.38,1.38,0,0,0,1.314,1.216,1.329,1.329,0,0,0,1.263-1.216A1.288,1.288,0,0,0,103.893,89.747Zm5.155,0a1.339,1.339,0,0,0-1.314,1.169,1.38,1.38,0,0,0,1.314,1.216,1.261,1.261,0,0,0,1.314-1.216A1.226,1.226,0,0,0,109.048,89.747Zm5.155,0a1.18,1.18,0,0,0-1.263,1.169,1.215,1.215,0,0,0,1.263,1.216,1.261,1.261,0,0,0,1.314-1.216A1.226,1.226,0,0,0,114.2,89.747Zm5.357,0a1.226,1.226,0,0,0-1.314,1.169,1.318,1.318,0,0,0,2.628,0A1.339,1.339,0,0,0,119.56,89.747Zm5.155,0a1.18,1.18,0,0,0-1.263,1.169,1.329,1.329,0,0,0,1.263,1.216,1.38,1.38,0,0,0,1.314-1.216A1.339,1.339,0,0,0,124.715,89.747Zm5.205,0a1.339,1.339,0,0,0-1.314,1.169,1.38,1.38,0,0,0,1.314,1.216,1.215,1.215,0,0,0,1.263-1.216A1.18,1.18,0,0,0,129.92,89.747Zm5.155,0a1.18,1.18,0,0,0-1.263,1.169,1.215,1.215,0,0,0,1.263,1.216,1.261,1.261,0,0,0,1.314-1.216C136.551,90.317,135.884,89.747,135.075,89.747ZM30.611,94.516A1.38,1.38,0,0,0,29.3,95.732a1.323,1.323,0,0,0,2.628,0A1.261,1.261,0,0,0,30.611,94.516Zm5.155,0A1.215,1.215,0,0,0,34.5,95.732,1.1,1.1,0,0,0,35.766,96.9a1.226,1.226,0,0,0,1.314-1.169C37.242,95.133,36.575,94.516,35.766,94.516Zm5.357,0a1.261,1.261,0,0,0-1.314,1.216A1.228,1.228,0,0,0,41.123,96.9a1.339,1.339,0,0,0,1.314-1.169A1.38,1.38,0,0,0,41.123,94.516Zm5.155,0a1.36,1.36,0,0,0-1.415,1.216c0,.748.606,1.169,1.415,1.169a1.339,1.339,0,0,0,1.314-1.169A1.261,1.261,0,0,0,46.278,94.516Zm5.206,0a1.38,1.38,0,0,0-1.314,1.216A1.228,1.228,0,0,0,51.484,96.9a1.18,1.18,0,0,0,1.263-1.169A1.215,1.215,0,0,0,51.484,94.516Zm5.307,0a1.215,1.215,0,0,0-1.263,1.216A1.184,1.184,0,0,0,56.791,96.9,1.339,1.339,0,0,0,58.1,95.732,1.38,1.38,0,0,0,56.791,94.516Zm5.206,0a1.261,1.261,0,0,0-1.314,1.216A1.228,1.228,0,0,0,62,96.9a1.288,1.288,0,0,0,1.263-1.169A1.329,1.329,0,0,0,62,94.516Zm5.155,0a1.329,1.329,0,0,0-1.263,1.216A1.184,1.184,0,0,0,67.151,96.9a1.226,1.226,0,0,0,1.314-1.169A1.261,1.261,0,0,0,67.151,94.516Zm5.357,0a1.261,1.261,0,0,0-1.314,1.216A1.228,1.228,0,0,0,72.508,96.9a1.288,1.288,0,0,0,1.263-1.169A1.329,1.329,0,0,0,72.508,94.516Zm5.155,0A1.215,1.215,0,0,0,76.4,95.732,1.1,1.1,0,0,0,77.663,96.9a1.226,1.226,0,0,0,1.314-1.169A1.261,1.261,0,0,0,77.663,94.516Zm5.206,0a1.261,1.261,0,0,0-1.314,1.216A1.228,1.228,0,0,0,82.869,96.9a1.288,1.288,0,0,0,1.263-1.169C84.294,95.133,83.677,94.516,82.869,94.516Zm5.307,0a1.329,1.329,0,0,0-1.263,1.216A1.184,1.184,0,0,0,88.175,96.9a1.226,1.226,0,0,0,1.314-1.169A1.38,1.38,0,0,0,88.175,94.516Zm5.206,0a1.261,1.261,0,0,0-1.314,1.216c0,.748.505,1.169,1.314,1.169a1.18,1.18,0,0,0,1.263-1.169A1.215,1.215,0,0,0,93.381,94.516Zm5.155,0a1.261,1.261,0,0,0-1.314,1.216c0,.748.505,1.169,1.314,1.169a1.226,1.226,0,0,0,1.314-1.169A1.261,1.261,0,0,0,98.536,94.516Zm5.357,0a1.261,1.261,0,0,0-1.314,1.216,1.228,1.228,0,0,0,1.314,1.169,1.288,1.288,0,0,0,1.263-1.169A1.329,1.329,0,0,0,103.893,94.516Zm5.155,0a1.38,1.38,0,0,0-1.314,1.216,1.323,1.323,0,0,0,2.628,0A1.261,1.261,0,0,0,109.048,94.516Zm5.155,0a1.215,1.215,0,0,0-1.263,1.216A1.1,1.1,0,0,0,114.2,96.9a1.226,1.226,0,0,0,1.314-1.169A1.261,1.261,0,0,0,114.2,94.516Zm5.357,0a1.261,1.261,0,0,0-1.314,1.216c0,.748.505,1.169,1.314,1.169a1.226,1.226,0,0,0,1.314-1.169A1.38,1.38,0,0,0,119.56,94.516Zm5.155,0a1.215,1.215,0,0,0-1.263,1.216,1.184,1.184,0,0,0,1.263,1.169,1.339,1.339,0,0,0,1.314-1.169A1.38,1.38,0,0,0,124.715,94.516Zm5.205,0a1.38,1.38,0,0,0-1.314,1.216A1.228,1.228,0,0,0,129.92,96.9a1.18,1.18,0,0,0,1.263-1.169A1.215,1.215,0,0,0,129.92,94.516Zm5.155,0a1.215,1.215,0,0,0-1.263,1.216,1.1,1.1,0,0,0,1.263,1.169,1.226,1.226,0,0,0,1.314-1.169C136.551,95.133,135.884,94.516,135.075,94.516ZM25.456,99.472c-.809,0-1.314.421-1.314,1.169a1.266,1.266,0,0,0,1.314,1.216,1.222,1.222,0,0,0,1.263-1.216A1.184,1.184,0,0,0,25.456,99.472Zm5.155,0a1.228,1.228,0,0,0-1.314,1.169,1.266,1.266,0,0,0,1.314,1.216,1.178,1.178,0,0,0,1.314-1.216C31.925,99.893,31.42,99.472,30.611,99.472Zm5.155,0a1.1,1.1,0,0,0-1.263,1.169,1.138,1.138,0,0,0,1.263,1.216,1.178,1.178,0,0,0,1.314-1.216C37.08,99.893,36.575,99.472,35.766,99.472Zm5.357,0c-.809,0-1.314.421-1.314,1.169a1.318,1.318,0,0,0,2.628,0A1.228,1.228,0,0,0,41.123,99.472Zm5.155,0c-.809,0-1.415.421-1.415,1.169a1.374,1.374,0,0,0,2.729,0C47.592,99.893,47.087,99.472,46.278,99.472Zm5.206,0a1.228,1.228,0,0,0-1.314,1.169,1.266,1.266,0,0,0,1.314,1.216,1.138,1.138,0,0,0,1.263-1.216A1.1,1.1,0,0,0,51.484,99.472Zm5.307,0a1.1,1.1,0,0,0-1.263,1.169,1.222,1.222,0,0,0,1.263,1.216,1.266,1.266,0,0,0,1.314-1.216A1.228,1.228,0,0,0,56.791,99.472Zm5.206,0c-.809,0-1.314.421-1.314,1.169A1.266,1.266,0,0,0,62,101.857a1.329,1.329,0,0,0,1.263-1.216A1.288,1.288,0,0,0,62,99.472Zm5.155,0a1.184,1.184,0,0,0-1.263,1.169,1.222,1.222,0,0,0,1.263,1.216,1.261,1.261,0,0,0,1.314-1.216A1.226,1.226,0,0,0,67.151,99.472Zm5.357,0c-.809,0-1.314.421-1.314,1.169a1.266,1.266,0,0,0,1.314,1.216,1.329,1.329,0,0,0,1.263-1.216A1.288,1.288,0,0,0,72.508,99.472Zm5.155,0a1.1,1.1,0,0,0-1.263,1.169,1.222,1.222,0,0,0,1.263,1.216,1.38,1.38,0,0,0,1.314-1.216A1.226,1.226,0,0,0,77.663,99.472Zm5.206,0c-.809,0-1.314.421-1.314,1.169a1.266,1.266,0,0,0,1.314,1.216,1.329,1.329,0,0,0,1.263-1.216A1.18,1.18,0,0,0,82.869,99.472Zm5.307,0a1.184,1.184,0,0,0-1.263,1.169,1.222,1.222,0,0,0,1.263,1.216,1.261,1.261,0,0,0,1.314-1.216A1.339,1.339,0,0,0,88.175,99.472Zm5.206,0c-.809,0-1.314.421-1.314,1.169a1.178,1.178,0,0,0,1.314,1.216,1.215,1.215,0,0,0,1.263-1.216A1.18,1.18,0,0,0,93.381,99.472Zm5.155,0c-.809,0-1.314.421-1.314,1.169a1.178,1.178,0,0,0,1.314,1.216,1.261,1.261,0,0,0,1.314-1.216A1.226,1.226,0,0,0,98.536,99.472Zm5.357,0c-.809,0-1.314.421-1.314,1.169a1.266,1.266,0,0,0,1.314,1.216,1.329,1.329,0,0,0,1.263-1.216A1.288,1.288,0,0,0,103.893,99.472Zm5.155,0a1.228,1.228,0,0,0-1.314,1.169,1.318,1.318,0,0,0,2.628,0A1.226,1.226,0,0,0,109.048,99.472Zm5.155,0a1.1,1.1,0,0,0-1.263,1.169,1.138,1.138,0,0,0,1.263,1.216,1.261,1.261,0,0,0,1.314-1.216A1.226,1.226,0,0,0,114.2,99.472Zm5.357,0c-.809,0-1.314.421-1.314,1.169a1.178,1.178,0,0,0,1.314,1.216,1.261,1.261,0,0,0,1.314-1.216A1.339,1.339,0,0,0,119.56,99.472Zm5.155,0a1.1,1.1,0,0,0-1.263,1.169,1.222,1.222,0,0,0,1.263,1.216,1.38,1.38,0,0,0,1.314-1.216A1.339,1.339,0,0,0,124.715,99.472Zm5.205,0a1.228,1.228,0,0,0-1.314,1.169,1.266,1.266,0,0,0,1.314,1.216,1.215,1.215,0,0,0,1.263-1.216A1.18,1.18,0,0,0,129.92,99.472Zm5.155,0a1.1,1.1,0,0,0-1.263,1.169,1.138,1.138,0,0,0,1.263,1.216,1.261,1.261,0,0,0,1.314-1.216A1.226,1.226,0,0,0,135.075,99.472ZM20.1,104.241a1.178,1.178,0,0,0-1.314,1.216c0,.748.505,1.169,1.314,1.169a1.226,1.226,0,0,0,1.314-1.169A1.261,1.261,0,0,0,20.1,104.241Zm5.357,0a1.178,1.178,0,0,0-1.314,1.216,1.228,1.228,0,0,0,1.314,1.169,1.288,1.288,0,0,0,1.263-1.169A1.329,1.329,0,0,0,25.456,104.241Zm5.155,0a1.266,1.266,0,0,0-1.314,1.216,1.323,1.323,0,0,0,2.628,0A1.261,1.261,0,0,0,30.611,104.241Zm5.155,0a1.138,1.138,0,0,0-1.263,1.216,1.1,1.1,0,0,0,1.263,1.169,1.226,1.226,0,0,0,1.314-1.169A1.261,1.261,0,0,0,35.766,104.241Zm5.357,0a1.178,1.178,0,0,0-1.314,1.216,1.228,1.228,0,0,0,1.314,1.169,1.339,1.339,0,0,0,1.314-1.169A1.38,1.38,0,0,0,41.123,104.241Zm5.155,0a1.263,1.263,0,0,0-1.415,1.216c0,.748.606,1.169,1.415,1.169a1.339,1.339,0,0,0,1.314-1.169A1.261,1.261,0,0,0,46.278,104.241Zm5.206,0a1.266,1.266,0,0,0-1.314,1.216,1.228,1.228,0,0,0,1.314,1.169,1.18,1.18,0,0,0,1.263-1.169A1.215,1.215,0,0,0,51.484,104.241Zm5.307,0a1.138,1.138,0,0,0-1.263,1.216,1.184,1.184,0,0,0,1.263,1.169,1.228,1.228,0,0,0,1.314-1.169A1.266,1.266,0,0,0,56.791,104.241Zm5.206,0a1.178,1.178,0,0,0-1.314,1.216A1.228,1.228,0,0,0,62,106.626a1.288,1.288,0,0,0,1.263-1.169A1.329,1.329,0,0,0,62,104.241Zm5.155,0a1.222,1.222,0,0,0-1.263,1.216,1.184,1.184,0,0,0,1.263,1.169,1.226,1.226,0,0,0,1.314-1.169A1.261,1.261,0,0,0,67.151,104.241Zm5.357,0a1.178,1.178,0,0,0-1.314,1.216,1.228,1.228,0,0,0,1.314,1.169,1.288,1.288,0,0,0,1.263-1.169A1.329,1.329,0,0,0,72.508,104.241Zm5.155,0a1.138,1.138,0,0,0-1.263,1.216,1.1,1.1,0,0,0,1.263,1.169,1.226,1.226,0,0,0,1.314-1.169A1.261,1.261,0,0,0,77.663,104.241Zm5.206,0a1.178,1.178,0,0,0-1.314,1.216,1.228,1.228,0,0,0,1.314,1.169,1.288,1.288,0,0,0,1.263-1.169A1.215,1.215,0,0,0,82.869,104.241ZM20.1,109.057a1.226,1.226,0,0,0-1.314,1.169,1.178,1.178,0,0,0,1.314,1.216,1.261,1.261,0,0,0,1.314-1.216C21.575,109.628,20.908,109.057,20.1,109.057Zm5.357,0a1.226,1.226,0,0,0-1.314,1.169,1.266,1.266,0,0,0,1.314,1.216,1.329,1.329,0,0,0,1.263-1.216A1.288,1.288,0,0,0,25.456,109.057Zm5.155,0a1.339,1.339,0,0,0-1.314,1.169,1.318,1.318,0,0,0,2.628,0A1.226,1.226,0,0,0,30.611,109.057Zm5.155,0a1.18,1.18,0,0,0-1.263,1.169,1.138,1.138,0,0,0,1.263,1.216,1.261,1.261,0,0,0,1.314-1.216C37.242,109.628,36.575,109.057,35.766,109.057Zm5.357,0a1.226,1.226,0,0,0-1.314,1.169,1.266,1.266,0,0,0,1.314,1.216,1.38,1.38,0,0,0,1.314-1.216A1.339,1.339,0,0,0,41.123,109.057Zm5.155,0a1.325,1.325,0,0,0-1.415,1.169,1.263,1.263,0,0,0,1.415,1.216,1.38,1.38,0,0,0,1.314-1.216A1.226,1.226,0,0,0,46.278,109.057Zm5.206,0a1.339,1.339,0,0,0-1.314,1.169,1.266,1.266,0,0,0,1.314,1.216,1.215,1.215,0,0,0,1.263-1.216A1.18,1.18,0,0,0,51.484,109.057Zm5.307,0a1.18,1.18,0,0,0-1.263,1.169,1.329,1.329,0,0,0,1.263,1.216,1.38,1.38,0,0,0,1.314-1.216A1.339,1.339,0,0,0,56.791,109.057Zm5.206,0a1.226,1.226,0,0,0-1.314,1.169A1.266,1.266,0,0,0,62,111.442a1.329,1.329,0,0,0,1.263-1.216A1.288,1.288,0,0,0,62,109.057Zm5.155,0a1.288,1.288,0,0,0-1.263,1.169,1.222,1.222,0,0,0,1.263,1.216,1.261,1.261,0,0,0,1.314-1.216A1.226,1.226,0,0,0,67.151,109.057Zm5.357,0a1.226,1.226,0,0,0-1.314,1.169,1.266,1.266,0,0,0,1.314,1.216,1.329,1.329,0,0,0,1.263-1.216A1.288,1.288,0,0,0,72.508,109.057Zm5.155,0a1.18,1.18,0,0,0-1.263,1.169,1.138,1.138,0,0,0,1.263,1.216,1.261,1.261,0,0,0,1.314-1.216A1.226,1.226,0,0,0,77.663,109.057Zm-20.873,4.769a1.215,1.215,0,0,0-1.263,1.216,1.184,1.184,0,0,0,1.263,1.169,1.339,1.339,0,0,0,1.314-1.169A1.38,1.38,0,0,0,56.791,113.826Zm-36.691.14a1.178,1.178,0,0,0-1.314,1.216c0,.748.505,1.169,1.314,1.169a1.226,1.226,0,0,0,1.314-1.169A1.261,1.261,0,0,0,20.1,113.967Zm5.357,0a1.178,1.178,0,0,0-1.314,1.216,1.228,1.228,0,0,0,1.314,1.169,1.288,1.288,0,0,0,1.263-1.169A1.329,1.329,0,0,0,25.456,113.967Zm5.155,0a1.266,1.266,0,0,0-1.314,1.216,1.323,1.323,0,0,0,2.628,0A1.261,1.261,0,0,0,30.611,113.967Zm5.155,0a1.138,1.138,0,0,0-1.263,1.216,1.1,1.1,0,0,0,1.263,1.169,1.226,1.226,0,0,0,1.314-1.169A1.261,1.261,0,0,0,35.766,113.967Zm5.357,0a1.178,1.178,0,0,0-1.314,1.216,1.228,1.228,0,0,0,1.314,1.169,1.339,1.339,0,0,0,1.314-1.169A1.38,1.38,0,0,0,41.123,113.967Zm5.155,0a1.263,1.263,0,0,0-1.415,1.216c0,.748.606,1.169,1.415,1.169a1.339,1.339,0,0,0,1.314-1.169A1.261,1.261,0,0,0,46.278,113.967Zm5.206,0a1.266,1.266,0,0,0-1.314,1.216,1.228,1.228,0,0,0,1.314,1.169,1.18,1.18,0,0,0,1.263-1.169A1.215,1.215,0,0,0,51.484,113.967Zm10.512,0a1.261,1.261,0,0,0-1.314,1.216A1.339,1.339,0,0,0,62,116.351a1.184,1.184,0,0,0,1.263-1.169A1.222,1.222,0,0,0,62,113.967Zm5.155,0a1.329,1.329,0,0,0-1.263,1.216,1.288,1.288,0,0,0,1.263,1.169c.809,0,1.314-.421,1.314-1.169A1.178,1.178,0,0,0,67.151,113.967Zm5.357,0a1.261,1.261,0,0,0-1.314,1.216,1.339,1.339,0,0,0,1.314,1.169,1.184,1.184,0,0,0,1.263-1.169A1.222,1.222,0,0,0,72.508,113.967Zm5.155,0a1.215,1.215,0,0,0-1.263,1.216,1.18,1.18,0,0,0,1.263,1.169c.809,0,1.314-.421,1.314-1.169A1.178,1.178,0,0,0,77.663,113.967Zm-31.385,4.816c-.809,0-1.415.421-1.415,1.169a1.263,1.263,0,0,0,1.415,1.216,1.38,1.38,0,0,0,1.314-1.216A1.226,1.226,0,0,0,46.278,118.783Zm5.206,0a1.228,1.228,0,0,0-1.314,1.169,1.266,1.266,0,0,0,1.314,1.216,1.215,1.215,0,0,0,1.263-1.216A1.18,1.18,0,0,0,51.484,118.783Zm5.307,0a1.1,1.1,0,0,0-1.263,1.169,1.222,1.222,0,0,0,1.263,1.216,1.38,1.38,0,0,0,1.314-1.216A1.339,1.339,0,0,0,56.791,118.783Zm5.206,0a1.226,1.226,0,0,0-1.314,1.169A1.38,1.38,0,0,0,62,121.167a1.222,1.222,0,0,0,1.263-1.216A1.184,1.184,0,0,0,62,118.783Zm5.155,0a1.288,1.288,0,0,0-1.263,1.169,1.329,1.329,0,0,0,1.263,1.216,1.178,1.178,0,0,0,1.314-1.216C68.465,119.2,67.96,118.783,67.151,118.783Zm5.357,0a1.226,1.226,0,0,0-1.314,1.169,1.38,1.38,0,0,0,1.314,1.216,1.222,1.222,0,0,0,1.263-1.216A1.184,1.184,0,0,0,72.508,118.783Zm5.155,0a1.18,1.18,0,0,0-1.263,1.169,1.215,1.215,0,0,0,1.263,1.216,1.178,1.178,0,0,0,1.314-1.216C78.977,119.2,78.472,118.783,77.663,118.783Zm-26.179,4.769a1.266,1.266,0,0,0-1.314,1.216,1.228,1.228,0,0,0,1.314,1.169,1.1,1.1,0,0,0,1.263-1.169A1.138,1.138,0,0,0,51.484,123.552Zm5.307,0a1.138,1.138,0,0,0-1.263,1.216,1.184,1.184,0,0,0,1.263,1.169,1.228,1.228,0,0,0,1.314-1.169A1.266,1.266,0,0,0,56.791,123.552Zm5.206,0a1.178,1.178,0,0,0-1.314,1.216A1.228,1.228,0,0,0,62,125.936a1.184,1.184,0,0,0,1.263-1.169A1.222,1.222,0,0,0,62,123.552Zm5.155,0a1.222,1.222,0,0,0-1.263,1.216,1.184,1.184,0,0,0,1.263,1.169c.809,0,1.314-.421,1.314-1.169A1.178,1.178,0,0,0,67.151,123.552Zm5.357,0a1.178,1.178,0,0,0-1.314,1.216,1.228,1.228,0,0,0,1.314,1.169,1.184,1.184,0,0,0,1.263-1.169A1.222,1.222,0,0,0,72.508,123.552Z" transform="translate(-18.785 -26.906)" fill="#4f210d"/>
    <path id="Path_7093" data-name="Path 7093" d="M40.3,45.578a1.138,1.138,0,0,0-1.263,1.216A1.222,1.222,0,0,0,40.3,48.009a1.38,1.38,0,0,0,1.314-1.216A1.266,1.266,0,0,0,40.3,45.578Zm5.206,0a1.178,1.178,0,0,0-1.314,1.216,1.266,1.266,0,0,0,1.314,1.216,1.217,1.217,0,1,0,0-2.431Zm5.155,0a1.217,1.217,0,1,0,0,2.431,1.219,1.219,0,1,0,0-2.431ZM35,50.534a1.266,1.266,0,0,0-1.314,1.216A1.339,1.339,0,0,0,35,52.918a1.18,1.18,0,0,0,1.263-1.169A1.138,1.138,0,0,0,35,50.534Zm5.307,0a1.138,1.138,0,0,0-1.263,1.216A1.184,1.184,0,0,0,40.3,52.918a1.339,1.339,0,0,0,1.314-1.169A1.266,1.266,0,0,0,40.3,50.534Zm5.206,0a1.261,1.261,0,0,0-1.314,1.216,1.339,1.339,0,0,0,1.314,1.169,1.288,1.288,0,0,0,1.263-1.169A1.329,1.329,0,0,0,45.507,50.534Zm5.155,0A1.329,1.329,0,0,0,49.4,51.75a1.288,1.288,0,0,0,1.263,1.169,1.226,1.226,0,0,0,1.314-1.169A1.261,1.261,0,0,0,50.662,50.534Zm5.357,0a1.261,1.261,0,0,0-1.314,1.216,1.339,1.339,0,0,0,1.314,1.169,1.288,1.288,0,0,0,1.263-1.169A1.329,1.329,0,0,0,56.019,50.534ZM35,55.3a1.38,1.38,0,0,0-1.314,1.216A1.266,1.266,0,0,0,35,57.734,1.217,1.217,0,1,0,35,55.3Zm5.307,0a1.215,1.215,0,0,0-1.263,1.216A1.329,1.329,0,0,0,40.3,57.734a1.38,1.38,0,0,0,1.314-1.216A1.266,1.266,0,0,0,40.3,55.3Zm5.206,0a1.219,1.219,0,1,0,0,2.431,1.217,1.217,0,1,0,0-2.431Zm5.155,0A1.329,1.329,0,0,0,49.4,56.519a1.222,1.222,0,0,0,1.263,1.216,1.219,1.219,0,1,0,0-2.431Zm5.357,0a1.219,1.219,0,1,0,0,2.431,1.217,1.217,0,1,0,0-2.431ZM40.3,60.119a1.18,1.18,0,0,0-1.263,1.169A1.222,1.222,0,0,0,40.3,62.5a1.38,1.38,0,0,0,1.314-1.216A1.339,1.339,0,0,0,40.3,60.119Zm5.206.14a1.261,1.261,0,0,0-1.314,1.216,1.339,1.339,0,0,0,1.314,1.169,1.184,1.184,0,0,0,1.263-1.169A1.222,1.222,0,0,0,45.507,60.259Zm5.155,0A1.329,1.329,0,0,0,49.4,61.475a1.288,1.288,0,0,0,1.263,1.169c.809,0,1.314-.421,1.314-1.169A1.178,1.178,0,0,0,50.662,60.259ZM40.3,64.888A1.215,1.215,0,0,0,39.038,66.1,1.288,1.288,0,0,0,40.3,67.273,1.228,1.228,0,0,0,41.616,66.1,1.266,1.266,0,0,0,40.3,64.888Zm5.206.14a1.178,1.178,0,0,0-1.314,1.216,1.266,1.266,0,0,0,1.314,1.216,1.217,1.217,0,1,0,0-2.431Zm5.155,0a1.217,1.217,0,1,0,0,2.431,1.219,1.219,0,1,0,0-2.431ZM40.3,69.844Zm5.206,0Z" transform="translate(-2.297 -7.004)" fill="#e1a33e"/>
  </g>
</svg>
