<svg xmlns="http://www.w3.org/2000/svg" width="63.027" height="50" viewBox="0 0 63.027 50">
  <g id="ico_feature_distribution" transform="translate(-139.898 -43.461)">
    <path id="ico_menu_supplier" d="M56.433,20.5H47.838V8H7.73A6.005,6.005,0,0,0,2,14.25V48.625H7.73C7.73,53.8,11.583,58,16.324,58s8.595-4.2,8.595-9.375H42.108C42.108,53.8,45.962,58,50.7,58S59.3,53.8,59.3,48.625h5.73V33ZM16.324,53.312a4.705,4.705,0,0,1,0-9.375,4.705,4.705,0,0,1,0,9.375ZM55,25.188,60.63,33H47.838V25.188ZM50.7,53.312A4.705,4.705,0,1,1,55,48.625,4.5,4.5,0,0,1,50.7,53.312Z" transform="translate(137.898 35.461)" fill="#4f210d"/>
    <path id="Path_7400" data-name="Path 7400" d="M164.557,61.844V59.622a3.686,3.686,0,0,0,1.007-.37,4.359,4.359,0,0,0,1.105-.782,5.573,5.573,0,0,0,.888-1.049A3.784,3.784,0,0,0,168.13,56a3.745,3.745,0,0,0-1.421.411,4.359,4.359,0,0,0-1.105.782,5.573,5.573,0,0,0-.888,1.049,2.088,2.088,0,0,0-.158.288V57.318a.426.426,0,0,0-.415-.432.414.414,0,0,0-.415.432v1.214c-.059-.1-.1-.185-.158-.288a5.575,5.575,0,0,0-.888-1.049,5.7,5.7,0,0,0-1.105-.782A3.742,3.742,0,0,0,160.156,56a3.789,3.789,0,0,0,.572,1.42,5.576,5.576,0,0,0,.888,1.049,5.2,5.2,0,0,0,1.105.782,3.941,3.941,0,0,0,1.007.37v2.222h-6.375v1.708h1.421l.612,8.909h9.494l.612-8.909h1.421V61.844Z" fill="#e1a33e"/>
  </g>
</svg>
