<svg xmlns="http://www.w3.org/2000/svg" width="79.853" height="82.558" viewBox="0 0 79.853 82.558">
  <g id="ico_impact_cws" transform="translate(0 0)">
    <g id="noun-coffee-bean-4343478" transform="translate(8.429 23.945)">
      <path id="Path_7094" data-name="Path 7094" d="M158.033,283.106a14.228,14.228,0,0,0,5.574,2.421,14.235,14.235,0,0,1,11.8,12.649,11.91,11.91,0,0,0,2.963-10.04,18.9,18.9,0,0,0-5.789-10.872c-5.821-5.621-13.958-7.185-19.557-4.194h0a15.139,15.139,0,0,0,5.008,10.036Z" transform="translate(-147.107 -243.274)" fill="#e1a33e"/>
      <path id="Path_7095" data-name="Path 7095" d="M111.171,323.569a20.059,20.059,0,0,0,11.264,5.589,16.506,16.506,0,0,0,2.044.13,12.965,12.965,0,0,0,6.363-1.612,3.707,3.707,0,0,1-.412-1.281,13.02,13.02,0,0,0-3.94-7.917,12.72,12.72,0,0,0-5.575-2.522,17.326,17.326,0,0,1-6.756-3.011A17.141,17.141,0,0,1,108.3,302.7c-4.928,5.291-3.719,14.505,2.87,20.866Z" transform="translate(-105.282 -270.675)" fill="#e1a33e"/>
      <path id="Path_7096" data-name="Path 7096" d="M489.521,263.3a18.73,18.73,0,0,0-4.447-11.447,13.369,13.369,0,0,0-7.113-4.355,15,15,0,0,0-3.283,10.686,13.275,13.275,0,0,0,2.44,5.408,14.7,14.7,0,0,1,2.856,6.833,15.6,15.6,0,0,1-2.929,10.19c7.366-.682,12.924-8.307,12.475-17.315Z" transform="translate(-428.839 -222.073)" fill="#e1a33e"/>
      <path id="Path_7097" data-name="Path 7097" d="M371.413,262.934a18.728,18.728,0,0,0,4.447,11.447,13.317,13.317,0,0,0,7.241,4.39,3.61,3.61,0,0,1,.6-1.247,12.891,12.891,0,0,0,2.6-8.42,11.869,11.869,0,0,0-2.369-5.485,16.148,16.148,0,0,1-2.907-6.612,16.85,16.85,0,0,1,2.806-11.383c-7.337.718-12.866,8.326-12.417,17.312Z" transform="translate(-338.401 -220.424)" fill="#e1a33e"/>
      <path id="Path_7098" data-name="Path 7098" d="M192.421,155.373h.217a20.257,20.257,0,0,0,11.883-3.626,12.852,12.852,0,0,0,4.916-6.6,16.271,16.271,0,0,0-10.868-3.783,14.284,14.284,0,0,0-5.735,2.039,15.886,15.886,0,0,1-7.235,2.356,16.881,16.881,0,0,1-10.37-3.409c.281,7.136,7.846,12.931,17.192,13.017Z" transform="translate(-166.557 -128.639)" fill="#e1a33e"/>
      <path id="Path_7099" data-name="Path 7099" d="M194.168,47.021a17.422,17.422,0,0,1,7.006-2.419,18.382,18.382,0,0,1,11.614,3.362c-.317-7.113-7.867-12.878-17.19-12.965h-.212c-8.2,0-15.084,4.418-16.836,10.349A3.251,3.251,0,0,1,179.8,46a14.048,14.048,0,0,0,8.557,2.987,12.831,12.831,0,0,0,5.813-1.967Z" transform="translate(-169.468 -34.998)" fill="#e1a33e"/>
    </g>
    <g id="Group_3883" data-name="Group 3883">
      <path id="Path_7101" data-name="Path 7101" d="M23,45.08a2.188,2.188,0,0,0-3.582,0C18.36,46.732,15.2,52.1,15.2,54.79a6.11,6.11,0,0,0,5.9,6.4,6.249,6.249,0,0,0,5.9-6.4C27.21,52.1,24.049,46.732,23,45.08ZM21.31,57.269c-1.053,0-1.686-1.033-1.686-2.479,0-.826.843-2.686,1.686-4.545A15.112,15.112,0,0,1,23,54.79C23,56.236,22.153,57.269,21.31,57.269ZM45.751,45.08a2.188,2.188,0,0,0-3.582,0c-1.053,1.653-4.214,7.024-4.214,9.71a6.11,6.11,0,0,0,5.9,6.4,6.249,6.249,0,0,0,5.9-6.4C49.754,52.1,46.593,46.732,45.751,45.08Zm-1.9,12.189c-1.053,0-1.686-1.033-1.686-2.479,0-.826.843-2.686,1.686-4.545A15.112,15.112,0,0,1,45.54,54.79C45.751,56.236,44.908,57.269,43.854,57.269ZM68.295,45.08a2.188,2.188,0,0,0-3.582,0C63.66,46.732,60.5,52.1,60.5,54.79a6.11,6.11,0,0,0,5.9,6.4,6.249,6.249,0,0,0,5.9-6.4C72.3,52.1,69.138,46.732,68.295,45.08ZM66.609,57.269c-1.053,0-1.686-1.033-1.686-2.479,0-.826.843-2.686,1.686-4.545a15.112,15.112,0,0,1,1.686,4.545C68.295,56.236,67.452,57.269,66.609,57.269ZM87.468,45.08c-1.053,1.653-4.214,7.024-4.214,9.71a6.11,6.11,0,0,0,5.9,6.4,6.249,6.249,0,0,0,5.9-6.4c0-2.892-3.16-8.264-4.214-9.71A1.993,1.993,0,0,0,87.468,45.08Zm1.686,12.189c-1.053,0-1.686-1.033-1.686-2.479,0-.826.843-2.686,1.686-4.545a15.112,15.112,0,0,1,1.686,4.545C90.839,56.236,90.207,57.269,89.154,57.269Z" transform="translate(-15.2 -44.15)" fill="#e1a33e"/>
    </g>
  </g>
</svg>
