<svg xmlns="http://www.w3.org/2000/svg" width="9.083" height="17.305" viewBox="0 0 9.083 17.305">
  <path id="ico_attach" d="M5.677,3.245a2.112,2.112,0,0,0-.665-1.53,2.351,2.351,0,0,0-3.211,0,2.112,2.112,0,0,0-.665,1.53v9.734a3.169,3.169,0,0,0,1,2.294,3.527,3.527,0,0,0,4.817,0,3.169,3.169,0,0,0,1-2.294V5.408H9.083v7.571a4.225,4.225,0,0,1-1.33,3.059,4.7,4.7,0,0,1-6.423,0A4.225,4.225,0,0,1,0,12.979V3.245A3.112,3.112,0,0,1,.259,2,3.239,3.239,0,0,1,1,.95,3.422,3.422,0,0,1,2.1.247a3.563,3.563,0,0,1,2.607,0,3.422,3.422,0,0,1,1.105.7A3.239,3.239,0,0,1,6.553,2a3.111,3.111,0,0,1,.259,1.242V11.9a2.112,2.112,0,0,1-.665,1.53,2.351,2.351,0,0,1-3.211,0,2.112,2.112,0,0,1-.665-1.53V5.408H3.406V11.9a1.056,1.056,0,0,0,.333.765,1.176,1.176,0,0,0,1.606,0,1.056,1.056,0,0,0,.333-.765Z" transform="translate(0)"/>
</svg>
