<svg id="ico_impact_farmers" xmlns="http://www.w3.org/2000/svg" width="60.382" height="83.18" viewBox="0 0 60.382 83.18">
  <path id="Path_7079" data-name="Path 7079" d="M61.467,67.584a70.559,70.559,0,0,1-1.35,12c-1.838.455-3.675.858-5.5,1.3v-13a3.692,3.692,0,0,0-2.788-3.691V53.041l1.925.65a11.909,11.909,0,0,1,2.5,1.222,9.993,9.993,0,0,1,1.975,1.651C60.392,58.993,61.467,62.619,61.467,67.584Zm-12.3-15.258v11.7h-2.25V51.845C47.679,51.988,48.479,52.144,49.167,52.326Zm2.788,15.492v13.53a117.479,117.479,0,0,1-41.338,0V67.818a.916.916,0,0,1,.75-1H51.2A.9.9,0,0,1,51.954,67.818Zm-36.3-15.973v12.2H13.4v-11.7C14.141,52.144,14.891,51.988,15.654,51.845Zm-4.913,1.2V64.127a3.692,3.692,0,0,0-2.788,3.691v13c-1.838-.377-3.663-.78-5.5-1.3C.616,69.352-.409,59.227,6.366,54.821a11.908,11.908,0,0,1,2.5-1.222Zm33.525-1.833V64.049H18.3V51.221a1.124,1.124,0,0,0,.288-.117A2.068,2.068,0,0,0,19,50.9l11.625,6.81a1.274,1.274,0,0,0,1.313,0l11.6-6.81.388.195ZM42.3,5.342V16.415a.314.314,0,0,1-.15.26,46.214,46.214,0,0,1-21.738,0,.315.315,0,0,1-.138-.26V5.342A5.117,5.117,0,0,1,25.116,0H37.454A5.116,5.116,0,0,1,42.3,5.342Z" transform="translate(-1.085)" fill="#e1a33e"/>
  <path id="Path_7080" data-name="Path 7080" d="M49.105,14.994c0,1.183-6.95,4.081-19.888,4.081S9.33,16.177,9.33,14.994c0-.26,1.15-1.651,6.25-2.794v.559A2.984,2.984,0,0,0,17.768,15.7a48.511,48.511,0,0,0,11.45,1.443,48.525,48.525,0,0,0,11.474-1.377,3,3,0,0,0,2.2-2.938V12.2C47.968,13.344,49.105,14.747,49.105,14.994ZM39.043,45.511l-9.825,5.758-9.825-5.758a9.538,9.538,0,0,0,2.3-4.549,12.531,12.531,0,0,0,7.5,3.184,12.545,12.545,0,0,0,7.5-3.2A9.586,9.586,0,0,0,38.768,45.3Z" transform="translate(0.976 3.656)" fill="#e1a33e"/>
  <path id="Path_7081" data-name="Path 7081" d="M37.469,27.149a19.072,19.072,0,0,1-2.1,2.859h0a11.289,11.289,0,0,1-7.5,4.146A11.29,11.29,0,0,1,20.369,30a17.97,17.97,0,0,1-2.113-2.872,24.91,24.91,0,0,1-3.088-13.608,74.43,74.43,0,0,0,12.738,1.092,74.453,74.453,0,0,0,12.75-1.092A24.793,24.793,0,0,1,37.469,27.149Z" transform="translate(2.425 10.867)" fill="#e1a33e"/>
</svg>
