<svg id="ico_language" xmlns="http://www.w3.org/2000/svg" width="15.62" height="16.15" viewBox="0 0 15.62 16.15">
  <path id="Path_6870" data-name="Path 6870" d="M235.332,151.661a5.656,5.656,0,0,1-1.094-.442c-.017,0-.017-.017-.034-.017a3.553,3.553,0,0,0-.684,1.87h1.606a5.414,5.414,0,0,1,.205-1.411Z" transform="translate(-229.266 -147.037)" fill="#fff"/>
  <path id="Path_6871" data-name="Path 6871" d="M266.957,108.286a6.4,6.4,0,0,1,.649-1.275c.017-.017.017-.034.034-.051a3.549,3.549,0,0,0-1.641.952c.017,0,.017.017.034.017A4.319,4.319,0,0,0,266.957,108.286Z" transform="translate(-260.754 -104.138)" fill="#fff"/>
  <path id="Path_6872" data-name="Path 6872" d="M234.565,229.04h-1.606a3.608,3.608,0,0,0,.684,1.87c.017,0,.017-.017.034-.017a6.129,6.129,0,0,1,1.094-.442,7.8,7.8,0,0,1-.205-1.411Z" transform="translate(-228.721 -222.512)" fill="#fff"/>
  <path id="Path_6873" data-name="Path 6873" d="M314.7,104.707a5.87,5.87,0,0,0,1.111-.1,4.922,4.922,0,0,0-.889-1.513c-.017-.017-.034-.034-.034-.051h-.376c-.017.017-.034.034-.034.051a4.922,4.922,0,0,0-.889,1.513A6.009,6.009,0,0,0,314.7,104.707Z" transform="translate(-306.894 -100.338)" fill="#fff"/>
  <path id="Path_6874" data-name="Path 6874" d="M380.921,108.286a4.317,4.317,0,0,0,.923-.357c.017,0,.017-.017.034-.017a3.546,3.546,0,0,0-1.641-.952c.017.017.017.034.034.051a6.392,6.392,0,0,1,.649,1.275Z" transform="translate(-371.504 -104.138)" fill="#fff"/>
  <path id="Path_6875" data-name="Path 6875" d="M301.84,229.04a5.37,5.37,0,0,0,.205,1.292,6.249,6.249,0,0,1,1.265-.119,7.589,7.589,0,0,1,1.265.119,7.561,7.561,0,0,0,.205-1.292Z" transform="translate(-295.5 -222.512)" fill="#fff"/>
  <path id="Path_6876" data-name="Path 6876" d="M303.31,170.357a7.588,7.588,0,0,1-1.265-.119,5.235,5.235,0,0,0-.205,1.292h2.939a5.367,5.367,0,0,0-.205-1.292A6.025,6.025,0,0,1,303.31,170.357Z" transform="translate(-295.5 -165.495)" fill="#fff"/>
  <path id="Path_6877" data-name="Path 6877" d="M266.958,290.64a4.316,4.316,0,0,0-.923.357c-.017,0-.017.017-.034.017a3.546,3.546,0,0,0,1.641.952c-.017-.017-.017-.034-.034-.051A6.392,6.392,0,0,1,266.958,290.64Z" transform="translate(-260.754 -282.242)" fill="#fff"/>
  <path id="Path_6878" data-name="Path 6878" d="M408.774,151.214a7.713,7.713,0,0,1-1.094.442,6.24,6.24,0,0,1,.205,1.411h1.606a3.608,3.608,0,0,0-.684-1.87.053.053,0,0,1-.034.017Z" transform="translate(-398.11 -147.032)" fill="#fff"/>
  <path id="Path_6879" data-name="Path 6879" d="M107.289,14h-10.8a2.4,2.4,0,0,0-2.41,2.4v7.5a2.4,2.4,0,0,0,2.41,2.4H98.9a6.976,6.976,0,0,1-.461,2.261,1.16,1.16,0,0,0,.325,1.309,1.2,1.2,0,0,0,.769.289,1.188,1.188,0,0,0,.581-.153,14,14,0,0,0,4-3.689h3.179a2.4,2.4,0,0,0,2.41-2.4V16.4a2.4,2.4,0,0,0-2.41-2.4Zm-5.4,10.336a4.063,4.063,0,1,1,4.084-4.063A4.074,4.074,0,0,1,101.889,24.336Z" transform="translate(-94.079 -14)" fill="#fff"/>
  <path id="Path_6880" data-name="Path 6880" d="M314.713,283.36a5.868,5.868,0,0,0-1.111.1,4.924,4.924,0,0,0,.889,1.513c.017.017.034.034.034.051h.376c.017-.017.034-.034.034-.051a4.922,4.922,0,0,0,.889-1.513A5.873,5.873,0,0,0,314.713,283.36Z" transform="translate(-306.903 -275.183)" fill="#fff"/>
  <path id="Path_6881" data-name="Path 6881" d="M380.922,290.64a6.4,6.4,0,0,1-.649,1.275c-.017.017-.017.034-.034.051a3.7,3.7,0,0,0,1.641-.952c-.017,0-.017-.017-.034-.017a4.324,4.324,0,0,0-.923-.357Z" transform="translate(-371.505 -282.242)" fill="#fff"/>
  <path id="Path_6882" data-name="Path 6882" d="M407.886,229.036a6.388,6.388,0,0,1-.205,1.411,5.655,5.655,0,0,1,1.094.442c.017,0,.017.017.034.017a3.553,3.553,0,0,0,.684-1.87Z" transform="translate(-398.111 -222.508)" fill="#fff"/>
</svg>
