<svg xmlns="http://www.w3.org/2000/svg" width="82.78" height="88.498" viewBox="0 0 82.78 88.498">
  <g id="ico_impact_cherries" transform="matrix(-0.998, 0.07, -0.07, -0.998, 82.706, 83.428)">
    <path id="Path_7438" data-name="Path 7438" d="M45.519,55.6l.058-18.032,30.77-33.22a2.77,2.77,0,0,0,.634-2.526,2.5,2.5,0,0,0-1.7-1.841,2.308,2.308,0,0,0-2.338.684l-30.57,33c-.058.023-.118.041-.174.068L25.162,33.8A13.429,13.429,0,0,0,17.619,23.77,11.932,11.932,0,0,0,5.67,25.049a14.152,14.152,0,0,0-5.7,11.444A13.947,13.947,0,0,0,5.6,47.9a11.887,11.887,0,0,0,11.942,1.2,13.664,13.664,0,0,0,7.607-10.077l12.3-.041L19.723,58.118a11.9,11.9,0,0,0-9.111-2.133,12.662,12.662,0,0,0-8.037,5.183,14.563,14.563,0,0,0-2.616,9.7,14,14,0,0,0,4.22,8.962,12.064,12.064,0,0,0,8.774,3.38,12.351,12.351,0,0,0,8.58-4.032h0a14.323,14.323,0,0,0,3.679-8.4A14.525,14.525,0,0,0,23.132,61.8L40.72,42.811l-.041,12.807A12.468,12.468,0,0,0,34.106,59.4h0a14.465,14.465,0,0,0-3.7,11.074,13.833,13.833,0,0,0,5.566,10.057A11.888,11.888,0,0,0,46.727,82.2,13.249,13.249,0,0,0,54.8,74.263a14.7,14.7,0,0,0-.533-11.732A12.725,12.725,0,0,0,45.518,55.6Z" transform="translate(-0.001 0.411)" fill="#e1a33e"/>
    <path id="Path_7439" data-name="Path 7439" d="M24.029,9.734a13.153,13.153,0,0,0-4.651-7.29A11.53,11.53,0,0,0,11.484.011l4.351,17.753a2.769,2.769,0,0,1-.634,2.525,2.309,2.309,0,0,1-2.338.684,2.5,2.5,0,0,1-1.7-1.841L6.807,1.379A12.938,12.938,0,0,0,1.082,7.794a14.212,14.212,0,0,0-.695,8.854A30.076,30.076,0,0,0,16.379,36.354a2.251,2.251,0,0,0,1.529.1,2.443,2.443,0,0,0,1.281-.917c.34-.47,8.306-11.651,4.839-25.8Z" transform="translate(52.476 27.567)" fill="#e1a33e"/>
    <path id="Path_7440" data-name="Path 7440" d="M18.4,26.45a11.4,11.4,0,0,0,8.2-.745,12.809,12.809,0,0,0,5.934-6.186l-16.424-4.7a2.5,2.5,0,0,1-1.7-1.841,2.77,2.77,0,0,1,.634-2.526,2.31,2.31,0,0,1,2.339-.683l16.432,4.7a13.935,13.935,0,0,0-2.252-8.522A12.174,12.174,0,0,0,24.811.919C11.712-2.83,1.357,5.768.922,6.137A2.656,2.656,0,0,0,.073,7.52,2.81,2.81,0,0,0,.161,9.172C.364,9.722,5.3,22.7,18.4,26.45Z" transform="translate(17.996 -0.025)" fill="#e1a33e"/>
  </g>
</svg>
