<svg xmlns="http://www.w3.org/2000/svg" width="50" height="50" viewBox="0 0 50 50">
  <path id="ico_feature_extensionserv" d="M46.048,24.81H42.476V15.286a4.776,4.776,0,0,0-4.762-4.762H28.19V6.952a5.952,5.952,0,1,0-11.9,0v3.571H6.762a4.756,4.756,0,0,0-4.738,4.762v9.048H5.571a6.429,6.429,0,0,1,0,12.857H2v9.048A4.776,4.776,0,0,0,6.762,51H15.81V47.429a6.429,6.429,0,1,1,12.857,0V51h9.048a4.776,4.776,0,0,0,4.762-4.762V36.714h3.571a5.952,5.952,0,0,0,0-11.9Z" transform="translate(-2 -1)" fill="#4f210d"/>
</svg>
