<svg id="ico_export" xmlns="http://www.w3.org/2000/svg" width="51.638" height="70.962" viewBox="0 0 51.638 70.962">
  <path id="Path_7486" data-name="Path 7486" d="M5.227,27.408v10.65A4.55,4.55,0,0,0,9.873,42.5H52.219a4.55,4.55,0,0,0,4.646-4.438V27.408a4.651,4.651,0,0,0-9.292,0v6.214H14.519V27.408A4.55,4.55,0,0,0,9.873,22.97,4.55,4.55,0,0,0,5.227,27.408Z" transform="translate(-5.227 28.466)" fill="#d3d3d3"/>
  <path id="Path_7487" data-name="Path 7487" d="M26.977,58.733h0a4.426,4.426,0,0,0,4.636-4.388V15.607l6.242,5.962a4.662,4.662,0,0,0,6.522-.047,4.183,4.183,0,0,0,.034-6.239L30.24,1.743a4.917,4.917,0,0,0-6.553.015L9.513,15.3a4.183,4.183,0,0,0,.051,6.23,4.663,4.663,0,0,0,6.518.044l6.243-5.963V54.362A4.429,4.429,0,0,0,26.977,58.733Z" transform="translate(-1.152 -0.5)" fill="#d3d3d3"/>
</svg>
